<?xml version="1.0" encoding="UTF-8"?>
<!DOCTYPE svg PUBLIC "-//W3C//DTD SVG 1.1//EN" "http://www.w3.org/Graphics/SVG/1.1/DTD/svg11.dtd">
<!-- Creator: CorelDRAW X6 -->
<svg xmlns="http://www.w3.org/2000/svg" xml:space="preserve" width="5.06944in" height="0.791661in" version="1.1" style="shape-rendering:geometricPrecision; text-rendering:geometricPrecision; image-rendering:optimizeQuality; fill-rule:evenodd; clip-rule:evenodd"
viewBox="0 0 5069 792"
 xmlns:xlink="http://www.w3.org/1999/xlink">
 <defs>
  <style type="text/css">
   <![CDATA[
    .fil0 {fill:#282828;fill-rule:nonzero}
   ]]>
  </style>
 </defs>
 <g id="Layer_x0020_1">
  <metadata id="CorelCorpID_0Corel-Layer"/>
  <path class="fil0" d="M3894 302l138 -2c13,3 27,15 32,29 -1,29 -7,57 -18,84l-202 3c18,-38 11,-90 51,-114zm-2944 -311l-6 0 -711 3 1 56 -184 649 -51 93 766 0c69,2 129,-20 160,-75 23,-81 64,-156 55,-246 -11,-35 -38,-67 -70,-88 32,-9 65,-21 90,-45 54,-69 71,-155 73,-240 -12,-52 -68,-97 -124,-106zm3307 206l-567 -3c-43,8 -81,33 -108,69 -39,122 -76,245 -98,374 10,59 58,118 123,131l623 -2 49 -120 -31 13 -427 3 -22 -10c-34,-39 6,-80 11,-120l514 -8c14,-81 71,-162 29,-250 -18,-35 -57,-67 -95,-77zm-2692 308l-44 156 -19 15 -149 2c-64,-35 -2,-107 4,-158l24 -15 184 -1zm233 -295l-629 2 -44 106c152,-22 315,-7 467,-11 13,6 20,19 22,32 -6,18 -4,42 -26,53l-414 9 -72 34c-59,61 -72,138 -77,220 4,47 37,91 80,115 96,29 231,15 345,11 26,-7 43,-32 56,-53 9,17 17,36 22,54l296 1 -10 -40 87 -321c14,-42 27,-100 -3,-137 -20,-37 -62,-61 -101,-75zm-1345 235l200 -1c28,12 21,49 13,70 -25,45 4,115 -50,140l-217 0c9,-69 37,-140 55,-209zm109 -321l188 2c26,14 17,51 11,70 -16,39 -15,91 -54,117l-216 1 71 -190zm3900 67l4 29 -135 497 -33 49 356 0 -7 -40 87 -336c4,-20 20,-39 39,-48 74,1 184,-24 252,16l44 -167c-111,17 -262,-50 -326,67 -11,-19 -5,-45 -6,-68l-275 0zm-2433 15c76,106 146,214 209,326 -118,84 -237,164 -356,243l0 6 196 -3 222 -149c33,47 65,95 83,148l377 -4c-8,-2 -15,-12 -21,-16l-183 -300 372 -253 0 -6 -224 7c-56,69 -141,103 -211,154 -31,-50 -73,-96 -81,-155l-380 3zm970 -118c96,-16 203,-11 302,-22 -1,41 -19,82 -29,123l9 6 243 -2 -27 103 -252 4c-34,102 -61,208 -90,313 0,27 22,42 44,54 77,0 167,12 234,-15l-32 117 -418 3c-57,-9 -115,-61 -127,-114l2 -75c49,-163 93,-330 140,-494z"/>
 </g>
</svg>
