<?xml version="1.0" encoding="UTF-8"?>
<!DOCTYPE svg PUBLIC "-//W3C//DTD SVG 1.1//EN" "http://www.w3.org/Graphics/SVG/1.1/DTD/svg11.dtd">
<!-- Creator: CorelDRAW X6 -->
<svg xmlns="http://www.w3.org/2000/svg" xml:space="preserve" width="5.13889in" height="1.79166in" version="1.1" style="shape-rendering:geometricPrecision; text-rendering:geometricPrecision; image-rendering:optimizeQuality; fill-rule:evenodd; clip-rule:evenodd"
viewBox="0 0 5139 1792"
 xmlns:xlink="http://www.w3.org/1999/xlink">
 <defs>
  <style type="text/css">
   <![CDATA[
    .fil5 {fill:#21B354;fill-rule:nonzero}
    .fil0 {fill:#282828;fill-rule:nonzero}
    .fil4 {fill:#2E8CCB;fill-rule:nonzero}
    .fil3 {fill:#6967AD;fill-rule:nonzero}
    .fil2 {fill:#CC3357;fill-rule:nonzero}
    .fil1 {fill:#F37437;fill-rule:nonzero}
    .fil6 {fill:#F9B72F;fill-rule:nonzero}
   ]]>
  </style>
 </defs>
 <g id="Layer_x0020_1">
  <metadata id="CorelCorpID_0Corel-Layer"/>
  <path class="fil0" d="M2953 1031c-206,0 -378,169 -378,381 0,200 162,377 380,377 152,0 248,-90 279,-124l-52 -51c-18,21 -94,102 -226,102 -178,0 -306,-144 -306,-304 0,-172 139,-308 305,-308 142,0 215,88 215,88 13,15 36,17 52,4 15,-13 17,-36 4,-52 0,0 -98,-114 -271,-114z"/>
  <path class="fil0" d="M378 1031c-206,0 -378,169 -378,381 0,200 162,377 380,377 152,0 248,-90 279,-124l-52 -51c-18,21 -94,102 -226,102 -178,0 -306,-144 -306,-304 0,-172 139,-308 305,-308 142,0 215,88 215,88 13,15 36,17 52,4 15,-13 17,-36 4,-52 0,0 -98,-114 -271,-114z"/>
  <path class="fil0" d="M1158 1104c178,0 306,150 306,306 0,141 -109,305 -303,305 -167,0 -309,-129 -309,-303 0,-195 156,-309 306,-309zm0 -74c-188,0 -379,148 -379,383 0,214 176,376 382,376 235,0 376,-200 376,-379 0,-197 -160,-380 -379,-380z"/>
  <path class="fil0" d="M2309 1030c-14,0 -27,9 -33,22l-221 542 -221 -542c-8,-18 -28,-27 -47,-19 -11,5 -19,15 -22,26l-127 689c-4,19 8,38 28,42 2,0 5,1 7,1l1 0c17,0 31,-12 35,-28 0,-1 0,-1 0,-2l105 -569 208 510c7,18 28,27 47,20 9,-4 16,-11 20,-20l208 -511 109 593 73 0 -134 -726c-3,-17 -18,-30 -36,-29z"/>
  <path class="fil0" d="M3660 1029c-14,0 -27,9 -32,22l-282 691c-7,18 1,39 20,47 18,7 39,-1 47,-20l0 0 248 -610 255 626 77 0 -299 -734c-6,-14 -19,-22 -34,-22z"/>
  <polygon class="fil0" points="3494,1506 3813,1506 3813,1432 3494,1432 "/>
  <path class="fil0" d="M4326 1031c-53,0 -105,13 -147,44 -42,31 -71,81 -71,143 0,54 20,98 54,129 34,31 78,52 132,80 0,0 0,0 1,0 55,27 104,49 135,74 31,24 46,46 46,87 0,41 -16,70 -41,92 -26,22 -62,35 -102,35 -95,0 -166,-61 -191,-86l-54 50c31,32 119,110 245,110 56,0 109,-18 150,-53 41,-35 67,-87 67,-148 0,-63 -32,-112 -74,-145 -42,-33 -94,-55 -147,-81 0,0 0,0 -1,0 -55,-28 -94,-49 -116,-68 -22,-20 -30,-35 -30,-74 0,-41 15,-65 41,-84 26,-19 64,-30 104,-30 71,0 131,39 131,39 16,12 39,9 51,-8 12,-16 9,-39 -8,-51 -1,-1 -2,-1 -3,-2 0,0 -75,-51 -172,-51z"/>
  <path class="fil0" d="M4677 1035c-20,0 -37,16 -37,36 0,20 16,37 36,37 0,0 1,0 1,0l424 0c20,0 37,-16 37,-36l0 -1c0,-20 -16,-36 -36,-36 0,0 -1,0 -1,0l-424 0z"/>
  <polygon class="fil0" points="4855,1082 4855,1786 4925,1786 4925,1082 "/>
  <path class="fil1" d="M2065 206c-55,49 -75,162 24,227l394 270 -191 -437c-40,-103 -150,-126 -227,-60z"/>
  <path class="fil2" d="M2404 -6c-64,1 -160,77 -117,194l198 465 69 -489c16,-122 -76,-178 -150,-170z"/>
  <path class="fil3" d="M2584 145l37 0c0,0 20,0 23,9 -15,12 -55,13 -49,77l63 421 196 -466c40,-104 -44,-191 -119,-194 -3,0 -6,0 -9,0l0 0 -3 0c-67,1 -143,49 -139,153z"/>
  <path class="fil4" d="M2846 271l-186 432 394 -271c91,-64 76,-167 25,-218 -21,-24 -60,-42 -102,-42 -49,0 -101,26 -132,100z"/>
  <path class="fil5" d="M3011 492l-370 258 456 0c93,0 154,-96 127,-184 -18,-55 -71,-99 -132,-99 -26,0 -53,8 -80,26z"/>
  <path class="fil6" d="M2054 750l449 0 -370 -258c-86,-55 -182,-23 -216,68 -29,104 44,190 138,190z"/>
 </g>
</svg>
