<?xml version="1.0" encoding="UTF-8"?>
<!DOCTYPE svg PUBLIC "-//W3C//DTD SVG 1.1//EN" "http://www.w3.org/Graphics/SVG/1.1/DTD/svg11.dtd">
<!-- Creator: CorelDRAW X6 -->
<svg xmlns="http://www.w3.org/2000/svg" xml:space="preserve" width="5.27778in" height="1.125in" version="1.1" style="shape-rendering:geometricPrecision; text-rendering:geometricPrecision; image-rendering:optimizeQuality; fill-rule:evenodd; clip-rule:evenodd"
viewBox="0 0 5278 1125"
 xmlns:xlink="http://www.w3.org/1999/xlink">
 <defs>
  <style type="text/css">
   <![CDATA[
    .fil3 {fill:#3DADE2;fill-rule:nonzero}
    .fil0 {fill:#767374;fill-rule:nonzero}
    .fil2 {fill:#86C44C;fill-rule:nonzero}
    .fil1 {fill:#F05B36;fill-rule:nonzero}
    .fil4 {fill:#F7BC2F;fill-rule:nonzero}
   ]]>
  </style>
 </defs>
 <g id="Layer_x0020_1">
  <metadata id="CorelCorpID_0Corel-Layer"/>
  <path class="fil0" d="M2079 379l0 520 116 0 0 -675 -161 0 -204 501 -198 -501 -167 0 0 675 109 0 0 -520 4 0 209 520 82 0 206 -520 4 0 0 0zm284 -170c-19,0 -35,6 -49,19 -13,13 -20,29 -20,47 0,19 7,34 20,47 13,12 30,19 49,19 19,0 36,-6 49,-19 14,-12 20,-28 20,-47 0,-18 -7,-34 -20,-47 -13,-13 -30,-20 -49,-20zm56 206l-114 0 0 484 114 0 0 -484zm339 -12c-52,0 -99,11 -138,33 -40,22 -70,54 -91,94 -21,40 -31,87 -31,139 0,46 10,88 30,125 20,37 49,66 85,86 36,20 78,30 124,30 54,0 100,-11 137,-32l2 -1 0 -104 -5 3c-17,12 -36,22 -56,29 -20,7 -38,11 -55,11 -45,0 -81,-14 -107,-42 -26,-28 -39,-66 -39,-115 0,-49 14,-89 41,-118 27,-29 63,-44 107,-44 37,0 74,13 108,38l5 3 0 -110 -2 -1c-13,-7 -31,-13 -53,-18 -22,-5 -43,-7 -64,-7zm318 95l0 -84 -114 0 0 484 114 0 0 -248c0,-42 10,-77 28,-103 19,-26 43,-39 74,-39 10,0 22,2 34,5 12,3 21,7 27,11l5 3 0 -115 -2 -1c-11,-5 -26,-7 -45,-7 -29,0 -54,9 -76,27 -19,16 -33,38 -44,65l-1 0zm431 -95c-80,0 -143,23 -188,69 -45,46 -68,110 -68,190 0,76 22,137 66,181 44,44 104,67 178,67 77,0 139,-24 185,-70 45,-47 68,-110 68,-188 0,-77 -21,-138 -64,-182 -42,-44 -102,-66 -177,-66zm-5 413c-42,0 -75,-14 -98,-41 -23,-27 -35,-67 -35,-116 0,-51 12,-91 35,-119 23,-28 56,-42 97,-42 40,0 72,13 95,40 23,27 35,67 35,118 0,53 -11,93 -32,120 -21,27 -54,40 -96,40zm486 -413c-54,0 -99,14 -133,41 -35,28 -52,64 -52,107 0,23 4,43 11,60 7,17 19,32 34,45 15,13 39,26 70,39 26,11 46,20 58,27 12,7 21,14 26,21 5,7 7,16 7,27 0,33 -24,48 -74,48 -19,0 -40,-4 -63,-12 -23,-8 -45,-19 -65,-33l-5 -3 0 111 2 1c16,8 37,14 61,19 24,5 46,8 65,8 59,0 106,-14 141,-41 35,-28 52,-65 52,-110 0,-33 -10,-61 -28,-83 -19,-22 -51,-43 -96,-61 -36,-14 -59,-26 -68,-36 -9,-9 -14,-21 -14,-37 0,-14 6,-25 17,-34 12,-9 28,-14 49,-14 19,0 39,3 58,9 20,6 37,14 51,24l5 3 0 -105 -2 -1c-13,-6 -31,-11 -52,-14 -21,-4 -40,-6 -57,-6zm442 0c-80,0 -143,23 -188,69 -45,46 -68,110 -68,190 0,76 22,137 66,181 44,44 104,67 178,67 77,0 139,-24 185,-70 45,-47 68,-110 68,-188 0,-77 -21,-138 -64,-182 -42,-44 -102,-66 -177,-66zm-5 413c-42,0 -75,-14 -98,-41 -23,-27 -35,-67 -35,-116 0,-51 12,-91 35,-119 23,-28 56,-42 97,-42 40,0 72,13 95,40 23,27 35,67 35,118 0,53 -11,93 -32,120 -21,27 -54,40 -96,40zm853 -308l0 -93 -115 0 0 -144 -4 1 -108 33 -2 1 0 109 -171 0 0 -61c0,-28 6,-50 19,-65 12,-14 30,-22 53,-22 16,0 33,4 50,11l4 2 0 -98 -2 -1c-16,-6 -37,-9 -64,-9 -34,0 -64,7 -91,22 -27,15 -48,35 -62,62 -15,26 -22,57 -22,90l0 67 -80 0 0 93 80 0 0 391 115 0 0 -391 171 0 0 248c0,102 48,154 143,154 16,0 32,-2 49,-5 17,-4 29,-7 36,-11l2 -1 0 -94 -5 3c-6,4 -14,8 -23,10 -9,3 -17,4 -23,4 -22,0 -39,-6 -49,-18 -10,-12 -16,-33 -16,-62l0 -228 115 0 0 0z"/>
  <polygon class="fil1" points="0,534 535,534 535,-2 0,-2 "/>
  <polygon class="fil2" points="591,534 1127,534 1127,-2 591,-2 "/>
  <polygon class="fil3" points="0,1125 535,1125 535,590 0,590 "/>
  <polygon class="fil4" points="591,1125 1127,1125 1127,590 591,590 "/>
 </g>
</svg>
