<svg width="32" height="37" viewBox="0 0 32 37" fill="none" xmlns="http://www.w3.org/2000/svg">
<path d="M-3.71884e-07 0.0110903L3.41101 2.56433L6.84137 10.5623H9.5999L10.6831 8.21509H9.97537C8.68088 8.21509 7.62817 7.17359 7.62817 5.8791V3.52068H6.45456V0H9.97537V3.52068H8.80177V5.8791C8.80177 6.52579 9.32807 7.04149 9.97537 7.04149H11.2246L12.7245 3.79659L10.9278 2.9011L16.8109 0.381384L18.194 5.22181C18.2316 2.34191 20.5829 0.0105974 23.4717 0.0105974C26.3839 0.0105974 28.7528 2.37949 28.7528 5.29168C28.7528 7.05147 27.8615 8.70208 26.4056 9.6779V10.5622H27.8267L27.9183 11.0434C28.2034 12.5227 28.2299 14.0431 27.9969 15.5593L32 22.6947L27.5792 23.7046V31.0998H21.7113V36.3809H7.62829V28.204C3.52081 25.2982 1.17484 20.6263 1.17829 15.642L1.17705 13.5015C1.17705 12.6946 1.2516 11.8655 1.40182 11.0487L1.48869 10.5622H2.64061L-3.71884e-07 4.23601V0.0110903ZM8.80189 2.35829V1.18469H7.62829V2.35829H8.80189V2.35829ZM10.8925 10.5622H13.1182L14.185 8.21497H11.9757L10.8925 10.5622ZM16.0493 1.98628L13.7168 2.98564L14.2672 3.2555L12.5174 7.04149H14.7185L16.1485 3.90281L16.6737 4.16799L16.0493 1.98628ZM14.4074 10.5623H17.0169V9.39991C17.0169 8.75272 16.4906 8.21521 15.8433 8.21521H15.4742V8.21509L14.4074 10.5623ZM16.7118 5.50228L16 7.06848C17.2206 7.15067 18.1905 8.15878 18.1905 9.39978V10.5622H20.5377V9.6779C19.3634 8.89098 18.5667 7.66292 18.2979 6.29511L16.7118 5.50228ZM27.579 5.2923C27.579 3.0279 25.7359 1.18482 23.4715 1.18482C21.2072 1.18482 19.3641 3.0279 19.3641 5.2923C19.3641 6.74994 20.1515 8.11183 21.4184 8.84588L21.7111 9.01483V10.5622H22.8847V6.94402C22.2034 6.70114 21.7111 6.05556 21.7111 5.29156C21.7111 4.32103 22.501 3.53116 23.4715 3.53116C24.4421 3.53116 25.2319 4.32116 25.2319 5.29168C25.2319 6.05568 24.7397 6.70114 24.0583 6.94414V10.5623H25.2319V9.01483L25.5247 8.84527C26.7916 8.11121 27.579 6.74981 27.579 5.2923ZM23.4715 5.8791C23.7955 5.8791 24.0583 5.61552 24.0583 5.2923C24.0583 4.96834 23.7955 4.7055 23.4715 4.7055C23.1476 4.7055 22.8847 4.96834 22.8847 5.2923C22.8847 5.61626 23.1476 5.8791 23.4715 5.8791ZM2.47635 11.7359C2.3912 12.3226 2.34831 12.9176 2.34831 13.4962L2.34708 15.6409C2.34351 20.3417 4.66311 24.7437 8.54361 27.4154L8.80177 27.5915V35.2074H20.5375V29.9264H26.4056V22.7687L30.2085 21.9008L26.7735 15.7765L26.8069 15.567C27.0251 14.2831 27.0375 12.9094 26.8479 11.7359H26.4056H20.5377H2.47635V11.7359ZM3.91217 10.5622H5.56512L2.63999 3.74249L1.33909 4.39029L3.91217 10.5622ZM1.1736 3.16863L1.82263 2.84417L1.1736 2.35829V3.16863Z" fill="white"/>
<path d="M22.298 15.2566C23.2685 15.2566 24.0584 14.6698 24.0584 13.4962H25.232C25.232 15.2566 23.9158 16.4302 22.298 16.4302C20.6801 16.4302 19.3639 15.2566 19.3639 13.4962H20.5375C20.5377 14.6698 21.3274 15.2566 22.298 15.2566Z" fill="white"/>
</svg>
