<svg width="25" height="38" viewBox="0 0 25 38" fill="none" xmlns="http://www.w3.org/2000/svg">
<path d="M24.008 33.584C23.719 26.982 21.057 21.232 17.168 18.605C21.059 15.979 23.721 10.228 24.008 3.627C24.647 3.313 25 2.97 25 2.607C25 1.167 19.405 0 12.5 0C5.596 0 0 1.167 0 2.608C0 2.97 0.354 3.314 0.992 3.627C1.281 10.227 3.943 15.979 7.832 18.606C3.942 21.231 1.28 26.983 0.992 33.584C0.354 33.897 0 34.241 0 34.605C0 36.044 5.596 37.212 12.5 37.212C19.404 37.212 25 36.045 25 34.605C25 34.24 24.647 33.896 24.008 33.584ZM10.154 19.555C10.499 19.419 10.732 19.036 10.732 18.606C10.732 18.174 10.499 17.792 10.154 17.655C6.106 16.067 3.183 10.678 2.719 4.229C5.009 4.83 8.535 5.216 12.5 5.216C16.465 5.216 19.991 4.83 22.281 4.229C21.817 10.678 18.895 16.067 14.846 17.655C14.5 17.791 14.268 18.174 14.268 18.606C14.268 19.037 14.5 19.419 14.846 19.555C18.895 21.143 21.817 26.532 22.282 32.981C21.914 32.884 21.512 32.794 21.083 32.71C19.765 27.375 12.501 22.697 12.501 22.697C12.501 22.697 5.238 27.375 3.919 32.71C3.49 32.794 3.088 32.885 2.72 32.981C3.184 26.531 6.106 21.143 10.154 19.555ZM12.5 17.377C12.5 17.377 10.927 16.14 9.113 14.161C14.051 13.102 18.072 10.758 20.253 7.738C17.926 13.107 12.5 17.377 12.5 17.377Z" fill="white"/>
</svg>
