<svg width="557" height="83" viewBox="0 0 557 83" fill="none" xmlns="http://www.w3.org/2000/svg">
<path class="svg-sb" d="M68.0938 11.3281C68.125 11.3906 68.1875 11.5469 68.2812 11.7969C68.375 12.0156 68.4688 12.2812 68.5625 12.5938C68.6562 12.875 68.7344 13.1719 68.7969 13.4844C68.8906 13.7656 68.9375 13.9688 68.9375 14.0938C68.9375 15.1562 68.7188 16.4375 68.2812 17.9375C67.8438 19.4062 67.2344 20.9688 66.4531 22.625C65.7031 24.2812 64.8125 25.9688 63.7812 27.6875C62.75 29.4062 61.6562 31.0469 60.5 32.6094C59.3438 34.1406 58.1406 35.5469 56.8906 36.8281C55.6719 38.0781 54.4688 39.0781 53.2812 39.8281C52.8438 39.4219 52.3125 38.9375 51.6875 38.375C51.0938 37.8125 50.4531 37.2188 49.7656 36.5938C49.0781 35.9375 48.3906 35.2812 47.7031 34.625C47.0156 33.9688 46.375 33.3281 45.7812 32.7031C46.6875 31.9844 47.7031 31.0469 48.8281 29.8906C49.9844 28.7031 51.1406 27.3906 52.2969 25.9531C53.4844 24.5156 54.6406 23.0312 55.7656 21.5C56.8906 19.9688 57.8594 18.5 58.6719 17.0938C59.5156 15.6562 60.1719 14.3594 60.6406 13.2031C61.1094 12.0469 61.2812 11.125 61.1562 10.4375C61.0625 10.0938 60.9062 9.85938 60.6875 9.73438C60.5 9.57813 60.1406 9.5 59.6094 9.5C57.7031 9.5 55.5 9.875 53 10.625C50.5 11.375 47.8906 12.4688 45.1719 13.9062C42.4531 15.3125 39.7031 17.0469 36.9219 19.1094C34.1719 21.1719 31.5781 23.5 29.1406 26.0938C26.7344 28.6875 24.5781 31.5312 22.6719 34.625C20.7969 37.7188 19.3594 41.0156 18.3594 44.5156C20.5469 44.4844 22.625 44.4062 24.5938 44.2812C26.5625 44.125 28.4375 43.9688 30.2188 43.8125C32 43.6562 33.7031 43.5156 35.3281 43.3906C36.9531 43.2656 38.5312 43.2031 40.0625 43.2031C40.875 43.2031 41.75 43.6406 42.6875 44.5156C43.625 45.3906 44.5 46.4375 45.3125 47.6562C46.125 48.875 46.7969 50.125 47.3281 51.4062C47.8594 52.6875 48.125 53.7188 48.125 54.5C48.125 56.7188 47.5469 58.9531 46.3906 61.2031C45.2656 63.4219 43.7344 65.5781 41.7969 67.6719C39.8906 69.7344 37.6719 71.6719 35.1406 73.4844C32.6094 75.2656 29.9375 76.8125 27.125 78.125C24.3438 79.4688 21.5 80.5156 18.5938 81.2656C15.6875 82.0469 12.9219 82.4375 10.2969 82.4375C9.95312 82.1562 9.5 81.7188 8.9375 81.125C8.375 80.5625 7.76562 79.9219 7.10938 79.2031C6.48438 78.5156 5.82812 77.7812 5.14062 77C4.48438 76.2188 3.875 75.4688 3.3125 74.75C2.71875 74.0312 2.20312 73.375 1.76562 72.7812C1.32812 72.1875 1.03125 71.7344 0.875 71.4219C2.59375 71.6719 4.65625 71.7344 7.0625 71.6094C9.5 71.4844 12.0625 71.1406 14.75 70.5781C17.4375 70.0156 20.1406 69.2188 22.8594 68.1875C25.6094 67.125 28.1719 65.7969 30.5469 64.2031C32.9219 62.6094 35.0156 60.7188 36.8281 58.5312C38.6406 56.3125 39.9531 53.75 40.7656 50.8438C38.9531 50.875 37.3125 50.9688 35.8438 51.125C34.375 51.25 32.9531 51.4062 31.5781 51.5938C30.2031 51.75 28.7969 51.8906 27.3594 52.0156C25.9219 52.1406 24.3281 52.2031 22.5781 52.2031C22.0156 52.2031 21.4062 52.2031 20.75 52.2031C20.0938 52.1719 19.4375 52.125 18.7812 52.0625C18.125 51.9688 17.5 51.8281 16.9062 51.6406C16.3125 51.4531 15.8281 51.1875 15.4531 50.8438C14.6094 50.125 13.7969 49.375 13.0156 48.5938C12.2344 47.7812 11.5312 46.9688 10.9062 46.1562C10.2812 45.3125 9.78125 44.4688 9.40625 43.625C9.03125 42.7812 8.84375 41.9688 8.84375 41.1875C8.84375 38.8125 9.4375 36.1719 10.625 33.2656C11.8125 30.3281 13.4531 27.375 15.5469 24.4062C17.6719 21.4375 20.1719 18.5625 23.0469 15.7812C25.9219 12.9688 29.0469 10.4688 32.4219 8.28125C35.8281 6.09375 39.4062 4.34375 43.1562 3.03125C46.9062 1.71875 50.7031 1.0625 54.5469 1.0625C55.8906 1.0625 57.1094 1.26562 58.2031 1.67188C59.3281 2.07813 60.3438 2.60938 61.25 3.26562C62.1562 3.92188 62.9688 4.65625 63.6875 5.46875C64.4062 6.25 65.0469 7.01562 65.6094 7.76562C66.1719 8.51562 66.6562 9.21875 67.0625 9.875C67.4688 10.5 67.8125 10.9844 68.0938 11.3281ZM78.125 54.5938C77.7188 55.8125 77.2031 57.2031 76.5781 58.7656C75.9844 60.3281 75.4062 61.8594 74.8438 63.3594C74.2812 64.8594 73.7969 66.2188 73.3906 67.4375C73.0156 68.6562 72.8281 69.5312 72.8281 70.0625C72.8281 70.25 72.9219 70.3438 73.1094 70.3438C73.4531 70.3438 73.9688 70.1406 74.6562 69.7344C75.3438 69.3281 76.125 68.7969 77 68.1406C77.9062 67.4844 78.8438 66.7656 79.8125 65.9844C80.7812 65.2031 81.7031 64.4375 82.5781 63.6875C83.4844 62.9062 84.2969 62.2031 85.0156 61.5781C85.7344 60.9531 86.2812 60.4844 86.6562 60.1719C86.9375 60.4531 87.2656 60.8125 87.6406 61.25C88.0469 61.6875 88.4219 62.0938 88.7656 62.4688C88.0781 63.1562 87.2188 64 86.1875 65C85.1562 65.9688 84.0312 66.9688 82.8125 68C81.625 69.0312 80.375 70.0625 79.0625 71.0938C77.7812 72.125 76.5156 73.0469 75.2656 73.8594C74.0469 74.6719 72.9062 75.3281 71.8438 75.8281C70.7812 76.3281 69.8906 76.5781 69.1719 76.5781C68.7031 76.5781 68.1094 76.4062 67.3906 76.0625C66.6719 75.75 65.9844 75.3438 65.3281 74.8438C64.6719 74.375 64.1094 73.8438 63.6406 73.25C63.1719 72.6562 62.9375 72.0781 62.9375 71.5156C63.4062 69.4219 63.875 67.5938 64.3438 66.0312C64.8125 64.4688 65.25 63.1406 65.6562 62.0469C66.0625 60.9219 66.4219 60.0156 66.7344 59.3281C67.0469 58.6406 67.2812 58.125 67.4375 57.7812C67.0625 57.625 66.7031 57.4531 66.3594 57.2656C66.0156 57.0781 65.6719 56.8906 65.3281 56.7031C64.8281 57.2344 64.2656 57.7969 63.6406 58.3906C63.0469 58.9844 62.4375 59.5781 61.8125 60.1719C61.1875 60.7656 60.5625 61.3438 59.9375 61.9062C59.3125 62.4688 58.75 62.9844 58.25 63.4531L56 61.1562C56.8125 60.375 57.7969 59.4375 58.9531 58.3438C60.0781 57.2188 61.1875 56.0938 62.2812 54.9688C61.5 54.5 60.7969 54.0625 60.1719 53.6562C59.5469 53.2188 59.0156 52.8281 58.5781 52.4844C58.0469 52.1094 57.5781 51.7656 57.1719 51.4531C56.9844 51.3594 56.8906 51.1562 56.8906 50.8438C56.8906 50.5 57.0312 50.0156 57.3125 49.3906C57.5625 48.7344 57.8906 48.0469 58.2969 47.3281C58.7031 46.5781 59.1406 45.8281 59.6094 45.0781C60.0781 44.2969 60.5312 43.5938 60.9688 42.9688C61.4062 42.3438 61.7812 41.8438 62.0938 41.4688C62.4375 41.0625 62.6562 40.8594 62.75 40.8594C62.8125 40.8594 63.0156 40.9375 63.3594 41.0938C63.7344 41.25 64.125 41.4375 64.5312 41.6562C64.9375 41.8438 65.3125 42.0625 65.6562 42.3125C66 42.5625 66.2188 42.7812 66.3125 42.9688C66.3438 43.125 66.375 43.4531 66.4062 43.9531C66.4375 44.4531 66.4688 45.0625 66.5 45.7812C67.7188 46.4062 68.9688 47.125 70.25 47.9375C71.5312 48.7188 72.7031 49.4688 73.7656 50.1875C75.0156 51 76.2031 51.8281 77.3281 52.6719C77.7344 52.9219 77.9844 53.2344 78.0781 53.6094C78.2031 53.9844 78.2188 54.3125 78.125 54.5938ZM89.6562 76.5781C89.1875 76.5781 88.5938 76.4062 87.875 76.0625C87.1562 75.75 86.4688 75.3438 85.8125 74.8438C85.1562 74.375 84.5938 73.8438 84.125 73.25C83.6562 72.6562 83.4219 72.0781 83.4219 71.5156C83.7344 70.1406 84.1562 68.5625 84.6875 66.7812C85.2188 65 85.7969 63.1875 86.4219 61.3438C87.0156 59.5 87.6562 57.7031 88.3438 55.9531C89 54.1719 89.5938 52.5938 90.125 51.2188C90.6875 49.8438 91.1719 48.7344 91.5781 47.8906C91.9844 47.0469 92.25 46.625 92.375 46.625C92.5625 46.625 93.0312 46.8281 93.7812 47.2344C94.5312 47.6406 95.3125 48.1406 96.125 48.7344C96.9688 49.2969 97.7188 49.9062 98.375 50.5625C99.0312 51.1875 99.3594 51.7344 99.3594 52.2031C99.3594 52.2969 99.3438 52.4219 99.3125 52.5781C99.2812 52.7031 99.2344 52.875 99.1719 53.0938C98.9219 53.875 98.5938 54.7969 98.1875 55.8594C97.8125 56.9219 97.4062 58.0312 96.9688 59.1875C96.5312 60.3125 96.0938 61.4531 95.6562 62.6094C95.2188 63.7344 94.8281 64.7969 94.4844 65.7969C94.1406 66.7969 93.8594 67.6719 93.6406 68.4219C93.4219 69.1719 93.3125 69.7188 93.3125 70.0625C93.3125 70.25 93.4062 70.3438 93.5938 70.3438C93.9375 70.3438 94.4531 70.1406 95.1406 69.7344C95.8281 69.3281 96.6094 68.7969 97.4844 68.1406C98.3906 67.4844 99.3281 66.7656 100.297 65.9844C101.266 65.2031 102.188 64.4375 103.062 63.6875C103.969 62.9062 104.781 62.2031 105.5 61.5781C106.219 60.9531 106.766 60.4844 107.141 60.1719C107.422 60.4531 107.75 60.8125 108.125 61.25C108.531 61.6875 108.906 62.0938 109.25 62.4688C108.562 63.1562 107.703 64 106.672 65C105.641 65.9688 104.516 66.9688 103.297 68C102.109 69.0312 100.859 70.0625 99.5469 71.0938C98.2656 72.125 97.0156 73.0469 95.7969 73.8594C94.5781 74.6719 93.4375 75.3281 92.375 75.8281C91.3125 76.3281 90.4062 76.5781 89.6562 76.5781ZM108.219 32.3281C108.188 32.4531 108.062 32.7656 107.844 33.2656C107.656 33.7344 107.422 34.2969 107.141 34.9531C106.859 35.5781 106.531 36.25 106.156 36.9688C105.812 37.6562 105.469 38.2969 105.125 38.8906C104.781 39.4844 104.453 39.9844 104.141 40.3906C103.828 40.7656 103.578 40.9531 103.391 40.9531C102.828 40.9219 102.141 40.75 101.328 40.4375C100.547 40.125 99.7812 39.7812 99.0312 39.4062C98.3125 39 97.6875 38.6094 97.1562 38.2344C96.6562 37.8594 96.4062 37.5938 96.4062 37.4375C96.4062 36.7812 96.5938 35.9375 96.9688 34.9062C97.3438 33.8438 97.7812 32.8281 98.2812 31.8594C98.7812 30.8594 99.2812 30 99.7812 29.2812C100.312 28.5625 100.719 28.2031 101 28.2031C101.562 28.2031 102.25 28.3906 103.062 28.7656C103.875 29.1094 104.656 29.5156 105.406 29.9844C106.188 30.4531 106.844 30.9219 107.375 31.3906C107.938 31.8281 108.219 32.1406 108.219 32.3281ZM119.938 51.3594C119.562 52.3594 119.188 53.375 118.812 54.4062C118.438 55.4375 118.062 56.5 117.688 57.5938C119.656 55.3438 121.344 53.5156 122.75 52.1094C124.188 50.6719 125.391 49.5469 126.359 48.7344C127.359 47.9219 128.156 47.375 128.75 47.0938C129.375 46.7812 129.859 46.625 130.203 46.625C130.609 46.625 131.219 46.8281 132.031 47.2344C132.844 47.6406 133.656 48.1406 134.469 48.7344C135.312 49.3281 136.031 49.9375 136.625 50.5625C137.25 51.1875 137.562 51.7344 137.562 52.2031C137.562 52.2969 137.547 52.4219 137.516 52.5781C137.484 52.7031 137.438 52.875 137.375 53.0938C137.125 53.875 136.797 54.7969 136.391 55.8594C136.016 56.9219 135.609 58.0312 135.172 59.1875C134.734 60.3125 134.297 61.4531 133.859 62.6094C133.422 63.7344 133.031 64.7969 132.688 65.7969C132.344 66.7969 132.062 67.6719 131.844 68.4219C131.625 69.1719 131.516 69.7188 131.516 70.0625C131.516 70.25 131.609 70.3438 131.797 70.3438C132.141 70.3438 132.656 70.1406 133.344 69.7344C134.031 69.3281 134.812 68.7969 135.688 68.1406C136.594 67.4844 137.531 66.7656 138.5 65.9844C139.469 65.2031 140.391 64.4375 141.266 63.6875C142.172 62.9062 142.984 62.2031 143.703 61.5781C144.422 60.9531 144.969 60.4844 145.344 60.1719C145.656 60.4531 146 60.8125 146.375 61.25C146.75 61.6875 147.109 62.0938 147.453 62.4688C146.766 63.1562 145.906 64 144.875 65C143.844 65.9688 142.719 66.9688 141.5 68C140.312 69.0312 139.062 70.0625 137.75 71.0938C136.469 72.125 135.219 73.0469 134 73.8594C132.781 74.6719 131.641 75.3281 130.578 75.8281C129.516 76.3281 128.625 76.5781 127.906 76.5781C127.438 76.5781 126.844 76.4062 126.125 76.0625C125.406 75.75 124.703 75.3438 124.016 74.8438C123.359 74.375 122.797 73.8438 122.328 73.25C121.859 72.6562 121.625 72.0781 121.625 71.5156C121.906 70.2344 122.281 68.7812 122.75 67.1562C123.25 65.5312 123.781 63.875 124.344 62.1875C124.906 60.4688 125.484 58.7812 126.078 57.125C126.703 55.4375 127.297 53.8906 127.859 52.4844L127.766 52.5781C127.172 53.2969 126.312 54.25 125.188 55.4375C124.094 56.5938 122.844 58.0938 121.438 59.9375C120.031 61.75 118.547 63.9531 116.984 66.5469C115.422 69.1094 113.891 72.1562 112.391 75.6875C112.203 76.125 112.031 76.4688 111.875 76.7188C111.719 76.9688 111.422 77.0938 110.984 77.0938C110.453 77.0938 109.844 76.9375 109.156 76.625C108.5 76.3438 107.828 75.9531 107.141 75.4531C106.422 74.9844 105.719 74.4531 105.031 73.8594C104.312 73.2656 103.672 72.6719 103.109 72.0781C103.109 71.8906 103.203 71.3594 103.391 70.4844C103.547 69.6094 103.781 68.5156 104.094 67.2031C104.406 65.8594 104.797 64.3438 105.266 62.6562C105.734 60.9375 106.266 59.1406 106.859 57.2656C107.453 55.3906 108.109 53.4844 108.828 51.5469C109.516 49.5781 110.266 47.6875 111.078 45.875C112.391 46.5 113.844 47.2656 115.438 48.1719C117.062 49.0781 118.562 50.1406 119.938 51.3594ZM148.344 76.5781C147.875 76.5781 147.281 76.4062 146.562 76.0625C145.844 75.75 145.156 75.3438 144.5 74.8438C143.844 74.375 143.281 73.8438 142.812 73.25C142.344 72.6562 142.109 72.0781 142.109 71.5156C142.422 70.1406 142.844 68.5625 143.375 66.7812C143.906 65 144.484 63.1875 145.109 61.3438C145.703 59.5 146.344 57.7031 147.031 55.9531C147.688 54.1719 148.281 52.5938 148.812 51.2188C149.375 49.8438 149.859 48.7344 150.266 47.8906C150.672 47.0469 150.938 46.625 151.062 46.625C151.25 46.625 151.719 46.8281 152.469 47.2344C153.219 47.6406 154 48.1406 154.812 48.7344C155.656 49.2969 156.406 49.9062 157.062 50.5625C157.719 51.1875 158.047 51.7344 158.047 52.2031C158.047 52.2969 158.031 52.4219 158 52.5781C157.969 52.7031 157.922 52.875 157.859 53.0938C157.609 53.875 157.281 54.7969 156.875 55.8594C156.5 56.9219 156.094 58.0312 155.656 59.1875C155.219 60.3125 154.781 61.4531 154.344 62.6094C153.906 63.7344 153.516 64.7969 153.172 65.7969C152.828 66.7969 152.547 67.6719 152.328 68.4219C152.109 69.1719 152 69.7188 152 70.0625C152 70.25 152.094 70.3438 152.281 70.3438C152.625 70.3438 153.141 70.1406 153.828 69.7344C154.516 69.3281 155.297 68.7969 156.172 68.1406C157.078 67.4844 158.016 66.7656 158.984 65.9844C159.953 65.2031 160.875 64.4375 161.75 63.6875C162.656 62.9062 163.469 62.2031 164.188 61.5781C164.906 60.9531 165.453 60.4844 165.828 60.1719C166.109 60.4531 166.438 60.8125 166.812 61.25C167.219 61.6875 167.594 62.0938 167.938 62.4688C167.25 63.1562 166.391 64 165.359 65C164.328 65.9688 163.203 66.9688 161.984 68C160.797 69.0312 159.547 70.0625 158.234 71.0938C156.953 72.125 155.703 73.0469 154.484 73.8594C153.266 74.6719 152.125 75.3281 151.062 75.8281C150 76.3281 149.094 76.5781 148.344 76.5781ZM166.906 32.3281C166.875 32.4531 166.75 32.7656 166.531 33.2656C166.344 33.7344 166.109 34.2969 165.828 34.9531C165.547 35.5781 165.219 36.25 164.844 36.9688C164.5 37.6562 164.156 38.2969 163.812 38.8906C163.469 39.4844 163.141 39.9844 162.828 40.3906C162.516 40.7656 162.266 40.9531 162.078 40.9531C161.516 40.9219 160.828 40.75 160.016 40.4375C159.234 40.125 158.469 39.7812 157.719 39.4062C157 39 156.375 38.6094 155.844 38.2344C155.344 37.8594 155.094 37.5938 155.094 37.4375C155.094 36.7812 155.281 35.9375 155.656 34.9062C156.031 33.8438 156.469 32.8281 156.969 31.8594C157.469 30.8594 157.969 30 158.469 29.2812C159 28.5625 159.406 28.2031 159.688 28.2031C160.25 28.2031 160.938 28.3906 161.75 28.7656C162.562 29.1094 163.344 29.5156 164.094 29.9844C164.875 30.4531 165.531 30.9219 166.062 31.3906C166.625 31.8281 166.906 32.1406 166.906 32.3281ZM187.25 69.125C185.938 69.125 184.797 68.9062 183.828 68.4688C182.797 69.5625 181.719 70.5938 180.594 71.5625C179.469 72.5 178.359 73.3281 177.266 74.0469C176.172 74.7969 175.094 75.3906 174.031 75.8281C172.969 76.2656 171.969 76.5156 171.031 76.5781C170.562 76.5781 169.875 76.375 168.969 75.9688C168.094 75.5625 167.234 75.0312 166.391 74.375C165.516 73.75 164.766 73.0312 164.141 72.2188C163.484 71.375 163.156 70.5312 163.156 69.6875C163.156 67.625 163.359 65.5625 163.766 63.5C164.172 61.4062 164.688 59.3438 165.312 57.3125C165.906 55.2812 166.578 53.2969 167.328 51.3594C168.047 49.3906 168.734 47.5 169.391 45.6875C170.984 46.4062 172.531 47.2031 174.031 48.0781C175.562 48.9531 176.984 49.9844 178.297 51.1719C177.828 52.1094 177.359 53.1875 176.891 54.4062C176.422 55.625 175.969 56.8906 175.531 58.2031C175.094 59.5156 174.688 60.8281 174.312 62.1406C173.938 63.4531 173.609 64.6719 173.328 65.7969C173.047 66.9219 172.828 67.9219 172.672 68.7969C172.516 69.6406 172.438 70.25 172.438 70.625C172.438 70.875 172.484 71.1094 172.578 71.3281C172.703 71.5156 172.891 71.6094 173.141 71.6094C173.641 71.6094 174.188 71.4531 174.781 71.1406C175.406 70.8281 176.062 70.4219 176.75 69.9219C177.438 69.3906 178.125 68.7812 178.812 68.0938C179.531 67.375 180.219 66.625 180.875 65.8438C180.312 64.875 180.031 63.9062 180.031 62.9375C180.031 62.2812 180.125 61.5 180.312 60.5938C180.531 59.6562 180.812 58.6875 181.156 57.6875C181.5 56.6875 181.875 55.6875 182.281 54.6875C182.719 53.6562 183.156 52.7031 183.594 51.8281C184.062 50.9531 184.5 50.1875 184.906 49.5312C185.344 48.875 185.734 48.3906 186.078 48.0781C186.797 48.3594 187.547 48.75 188.328 49.25C189.109 49.7188 189.828 50.2344 190.484 50.7969C191.141 51.3281 191.672 51.8594 192.078 52.3906C192.516 52.8906 192.766 53.3125 192.828 53.6562C192.828 54.3125 192.672 55.0781 192.359 55.9531C192.047 56.8281 191.609 57.7812 191.047 58.8125C190.516 59.8125 189.859 60.875 189.078 62C188.328 63.0938 187.5 64.2031 186.594 65.3281C186.781 65.3906 186.969 65.4531 187.156 65.5156C187.375 65.5469 187.625 65.5625 187.906 65.5625C189.156 65.5625 190.266 65.4375 191.234 65.1875C192.203 64.9375 193.125 64.5781 194 64.1094C194.875 63.6094 195.734 63 196.578 62.2812C197.422 61.5625 198.344 60.7344 199.344 59.7969C199.625 60.0781 199.984 60.4531 200.422 60.9219C200.891 61.3594 201.266 61.75 201.547 62.0938C200.234 63.4062 198.984 64.5156 197.797 65.4219C196.641 66.2969 195.484 67.0156 194.328 67.5781C193.203 68.1094 192.062 68.5 190.906 68.75C189.75 69 188.531 69.125 187.25 69.125ZM225.219 69.875C225.219 70.0625 225.312 70.1562 225.5 70.1562C225.781 70.1562 226.25 69.9531 226.906 69.5469C227.562 69.1406 228.312 68.625 229.156 68C230 67.375 230.891 66.6719 231.828 65.8906C232.797 65.1094 233.719 64.3438 234.594 63.5938C235.469 62.8438 236.25 62.1562 236.938 61.5312C237.656 60.9062 238.203 60.4219 238.578 60.0781C238.859 60.3594 239.203 60.7344 239.609 61.2031C240.047 61.6719 240.438 62.0938 240.781 62.4688C240.031 63.1562 239.125 64 238.062 65C237.031 65.9688 235.906 66.9844 234.688 68.0469C233.5 69.1094 232.266 70.1719 230.984 71.2344C229.703 72.2656 228.453 73.1875 227.234 74C226.016 74.8125 224.859 75.4688 223.766 75.9688C222.672 76.5 221.719 76.7656 220.906 76.7656C220.344 76.7656 219.719 76.6562 219.031 76.4375C218.375 76.2188 217.766 75.9062 217.203 75.5C216.641 75.125 216.172 74.6719 215.797 74.1406C215.422 73.6094 215.234 73.0156 215.234 72.3594C215.234 72.1094 215.219 71.8125 215.188 71.4688C215.188 71.0938 215.219 70.625 215.281 70.0625C215.344 69.4688 215.469 68.7656 215.656 67.9531C215.844 67.1094 216.125 66.0781 216.5 64.8594C215.469 65.9531 214.25 67.0938 212.844 68.2812C211.469 69.4688 210.016 70.5938 208.484 71.6562C206.953 72.7188 205.406 73.6719 203.844 74.5156C202.312 75.3906 200.891 76.0469 199.578 76.4844C199.422 76.5469 199.297 76.5781 199.203 76.5781C199.109 76.5781 199.016 76.5781 198.922 76.5781C198.609 76.5781 198.203 76.4219 197.703 76.1094C197.172 75.7969 196.656 75.375 196.156 74.8438C195.656 74.3438 195.234 73.7656 194.891 73.1094C194.516 72.4531 194.328 71.7969 194.328 71.1406C194.328 70.9531 194.422 70.3281 194.609 69.2656C194.797 68.2031 195.25 66.8594 195.969 65.2344C196.656 63.5781 197.688 61.7344 199.062 59.7031C200.438 57.6406 202.312 55.5312 204.688 53.375C205.906 52.2812 207.219 51.25 208.625 50.2812C209.812 49.4688 211.172 48.6406 212.703 47.7969C214.234 46.9531 215.844 46.2812 217.531 45.7812C217.594 45.7812 217.641 45.7656 217.672 45.7344C217.734 45.7031 217.812 45.7188 217.906 45.7812C218.281 45.9062 218.719 46.1094 219.219 46.3906C219.75 46.6406 220.266 46.9219 220.766 47.2344C221.297 47.5156 221.75 47.8125 222.125 48.125C222.531 48.4062 222.797 48.6406 222.922 48.8281C222.953 48.8906 222.953 48.9375 222.922 48.9688L222.828 49.0625C221.422 49.8125 220.094 50.6562 218.844 51.5938C217.594 52.5 216.484 53.3594 215.516 54.1719C214.391 55.1406 213.344 56.0938 212.375 57.0312C210.094 59.2812 208.516 61.2344 207.641 62.8906C206.766 64.5156 206.328 65.6875 206.328 66.4062C206.328 66.9375 206.547 67.2031 206.984 67.2031C207.422 67.2031 207.969 67.0312 208.625 66.6875C209.312 66.3125 210.078 65.8281 210.922 65.2344C211.766 64.6094 212.688 63.8906 213.688 63.0781C214.719 62.2344 215.781 61.3594 216.875 60.4531C217.844 59.6719 218.781 58.8281 219.688 57.9219C220.469 57.1719 221.281 56.3125 222.125 55.3438C222.969 54.375 223.688 53.3906 224.281 52.3906C224.281 52.3594 224.297 52.3281 224.328 52.2969C224.359 52.2656 224.406 52.2656 224.469 52.2969C224.812 52.5469 225.203 52.9688 225.641 53.5625C226.078 54.125 226.484 54.75 226.859 55.4375C227.234 56.125 227.547 56.7969 227.797 57.4531C228.078 58.0781 228.219 58.5625 228.219 58.9062C227.5 60.375 226.938 61.7188 226.531 62.9375C226.156 64.125 225.859 65.1719 225.641 66.0781C225.453 66.9844 225.328 67.7656 225.266 68.4219C225.234 69.0469 225.219 69.5312 225.219 69.875ZM237.594 61.0625C238.312 60.375 239.141 59.5938 240.078 58.7188C240.984 57.8438 241.891 56.8906 242.797 55.8594C243.734 54.8281 244.594 53.7188 245.375 52.5312C246.188 51.3438 246.828 50.0625 247.297 48.6875C247.422 47.9688 247.609 47.2188 247.859 46.4375C248.141 45.625 248.438 44.8906 248.75 44.2344C249.094 43.5781 249.422 43.0312 249.734 42.5938C250.047 42.1562 250.328 41.9375 250.578 41.9375C250.953 42.1562 251.516 42.5781 252.266 43.2031C253.016 43.7969 253.766 44.4375 254.516 45.125C255.266 45.8125 255.922 46.4531 256.484 47.0469C257.078 47.6094 257.375 47.9531 257.375 48.0781C257 49.5156 256.812 50.8125 256.812 51.9688C256.844 53.125 256.938 54.2656 257.094 55.3906C257.281 56.5156 257.469 57.7188 257.656 59C257.875 60.25 257.984 61.7031 257.984 63.3594C257.984 64.3594 257.812 65.5156 257.469 66.8281C257.156 68.1094 256.594 69.2656 255.781 70.2969C257.375 69.3594 258.953 68.3125 260.516 67.1562C262.078 65.9688 263.469 64.8594 264.688 63.8281C266.125 62.6094 267.5 61.3906 268.812 60.1719L270.922 62.4688C269.891 63.4375 268.766 64.4688 267.547 65.5625C266.359 66.6562 265.109 67.7344 263.797 68.7969C262.516 69.8594 261.203 70.875 259.859 71.8438C258.516 72.8125 257.188 73.6719 255.875 74.4219C254.562 75.1719 253.297 75.7656 252.078 76.2031C250.859 76.6406 249.719 76.8594 248.656 76.8594C247.75 76.8594 246.75 76.6406 245.656 76.2031C244.562 75.7656 243.531 75.2344 242.562 74.6094C241.594 73.9844 240.75 73.3281 240.031 72.6406C239.312 71.9531 238.891 71.375 238.766 70.9062C238.766 70.8438 238.828 70.7188 238.953 70.5312C239.078 70.3125 239.234 70.0938 239.422 69.875C239.578 69.6562 239.75 69.4688 239.938 69.3125C240.094 69.125 240.219 69.0312 240.312 69.0312C240.5 69.0312 240.875 69.1719 241.438 69.4531C242 69.7344 242.938 69.875 244.25 69.875C244.969 69.875 245.578 69.6875 246.078 69.3125C246.609 68.9375 247.047 68.4375 247.391 67.8125C247.734 67.1875 247.984 66.4688 248.141 65.6562C248.297 64.8438 248.375 63.9844 248.375 63.0781C248.375 61.7656 248.312 60.5 248.188 59.2812C248.062 58.0312 247.922 56.8281 247.766 55.6719C247.234 56.2969 246.625 56.9531 245.938 57.6406C245.25 58.3281 244.547 59.0156 243.828 59.7031C243.141 60.3594 242.438 61.0156 241.719 61.6719C241.031 62.2969 240.406 62.8594 239.844 63.3594L237.594 61.0625ZM362.703 13.625C362.703 15.125 362.109 16.7969 360.922 18.6406C359.734 20.4531 358.203 22.2969 356.328 24.1719C354.484 26.0156 352.422 27.8281 350.141 29.6094C347.859 31.3594 345.609 32.9375 343.391 34.3438C341.547 35.5 339.766 36.5625 338.047 37.5312C336.359 38.4688 334.766 39.3594 333.266 40.2031C331.797 41.0469 330.453 41.8594 329.234 42.6406C328.016 43.3906 326.953 44.1562 326.047 44.9375C328.297 45.3438 330.297 45.75 332.047 46.1562C333.797 46.5312 335.188 46.9844 336.219 47.5156C336.969 48.0469 337.734 48.8438 338.516 49.9062C339.297 50.9375 340 52 340.625 53.0938C341.25 54.1875 341.75 55.1875 342.125 56.0938C342.531 56.9688 342.734 57.5 342.734 57.6875C342.734 59.0625 342.375 60.5156 341.656 62.0469C340.969 63.5781 340 65.1094 338.75 66.6406C337.531 68.1406 336.062 69.5938 334.344 71C332.656 72.4062 330.797 73.6719 328.766 74.7969C326.766 75.9531 324.641 76.9219 322.391 77.7031C320.141 78.5156 317.859 79.0469 315.547 79.2969C314.516 78.4531 313.516 77.5469 312.547 76.5781C311.578 75.6406 310.703 74.7656 309.922 73.9531C309.141 73.1094 308.484 72.3906 307.953 71.7969C307.422 71.1719 307.094 70.7812 306.969 70.625C305.844 72.375 304.703 73.9688 303.547 75.4062C302.391 76.8438 301.234 78.0469 300.078 79.0156C298.953 80.0156 297.812 80.7656 296.656 81.2656C295.531 81.7969 294.406 82.0312 293.281 81.9688C292.812 81.9375 292.328 81.75 291.828 81.4062C291.328 81.0938 290.844 80.6875 290.375 80.1875C289.906 79.6875 289.469 79.1406 289.062 78.5469C288.625 77.9531 288.25 77.375 287.938 76.8125C287.594 76.2812 287.328 75.7812 287.141 75.3125C286.953 74.875 286.859 74.5625 286.859 74.375C286.859 71.0938 287.562 67.4375 288.969 63.4062C290.344 59.375 292.234 55.2031 294.641 50.8906C297.047 46.5781 299.891 42.2656 303.172 37.9531C306.453 33.6094 309.984 29.5 313.766 25.625C315.016 21.125 316.031 16.75 316.812 12.5C317.594 8.25 318.016 4.35937 318.078 0.828125C320.141 1.92187 321.797 3 323.047 4.0625C324.297 5.09375 325.281 6.01563 326 6.82812C326.812 7.79688 327.406 8.71875 327.781 9.59375C327.969 10.1562 328.062 10.9531 328.062 11.9844C328.062 12.1719 328.047 12.375 328.016 12.5938C328.016 12.7812 328 12.9844 327.969 13.2031C332.344 10.0781 336.688 7.59375 341 5.75C345.344 3.875 349.5 2.9375 353.469 2.9375C353.969 2.9375 354.547 3.125 355.203 3.5C355.859 3.875 356.516 4.375 357.172 5C357.859 5.625 358.531 6.32812 359.188 7.10938C359.875 7.85938 360.469 8.64063 360.969 9.45312C361.5 10.2344 361.922 11 362.234 11.75C362.547 12.4688 362.703 13.0938 362.703 13.625ZM318.312 47.375C316.656 51.625 314.875 55.75 312.969 59.75C311.094 63.7188 309.125 67.3125 307.062 70.5312C310.625 70.2188 313.938 69.7031 317 68.9844C320.062 68.2344 322.828 67.25 325.297 66.0312C327.766 64.8125 329.922 63.3125 331.766 61.5312C333.641 59.75 335.172 57.6562 336.359 55.25C335.734 54.9062 335.047 54.5938 334.297 54.3125C333.578 54.0312 332.812 53.7812 332 53.5625C331.188 53.3438 330.359 53.1562 329.516 53C328.703 52.8125 327.906 52.6406 327.125 52.4844C325.312 52.1719 323.438 51.9219 321.5 51.7344C321.062 51.6719 320.547 51.2031 319.953 50.3281C319.391 49.4531 318.844 48.4688 318.312 47.375ZM325.625 25.1094C325.094 27.0469 324.5 29.0781 323.844 31.2031C323.219 33.2969 322.531 35.4688 321.781 37.7188C324.594 35.4375 327.609 33.2812 330.828 31.25C334.078 29.2188 337.297 27.1562 340.484 25.0625C343.672 22.9375 346.688 20.6875 349.531 18.3125C352.375 15.9062 354.812 13.1875 356.844 10.1562C356.969 10 357.016 9.8125 356.984 9.59375C356.984 9.375 356.922 9.17188 356.797 8.98438C356.672 8.76562 356.5 8.59375 356.281 8.46875C356.094 8.3125 355.859 8.23438 355.578 8.23438C353.828 8.23438 351.812 8.65625 349.531 9.5C347.281 10.3125 344.859 11.4688 342.266 12.9688C339.672 14.4375 336.953 16.2188 334.109 18.3125C331.297 20.375 328.469 22.6406 325.625 25.1094ZM293.469 73.0625C293.75 73.0625 294.156 72.7188 294.688 72.0312C295.25 71.3125 295.891 70.3281 296.609 69.0781C297.359 67.7969 298.172 66.2656 299.047 64.4844C299.953 62.6719 300.891 60.6875 301.859 58.5312C302.828 56.3438 303.812 54 304.812 51.5C305.844 49 306.859 46.4062 307.859 43.7188C306.016 46.0625 304.281 48.4375 302.656 50.8438C301.031 53.2188 299.562 55.5938 298.25 57.9688C296.969 60.3438 295.859 62.7031 294.922 65.0469C294.016 67.3594 293.344 69.6094 292.906 71.7969C292.812 72.2344 292.828 72.5625 292.953 72.7812C293.109 72.9688 293.281 73.0625 293.469 73.0625ZM374.422 69.875C374.422 70.0625 374.516 70.1562 374.703 70.1562C375.047 70.1562 375.562 69.9531 376.25 69.5469C376.969 69.1406 377.781 68.625 378.688 68C379.594 67.375 380.547 66.6719 381.547 65.8906C382.547 65.1094 383.5 64.3594 384.406 63.6406C385.312 62.8906 386.125 62.2031 386.844 61.5781C387.594 60.9531 388.156 60.4844 388.531 60.1719C388.812 60.4531 389.141 60.8125 389.516 61.25C389.922 61.6875 390.297 62.0938 390.641 62.4688C389.953 63.1562 389.078 63.9844 388.016 64.9531C386.984 65.9219 385.844 66.9375 384.594 68C383.375 69.0312 382.094 70.0625 380.75 71.0938C379.438 72.0938 378.156 73 376.906 73.8125C375.656 74.5938 374.484 75.2344 373.391 75.7344C372.297 76.2344 371.391 76.4844 370.672 76.4844C370.141 76.4844 369.547 76.3125 368.891 75.9688C368.234 75.6562 367.609 75.2344 367.016 74.7031C366.453 74.2031 365.969 73.6406 365.562 73.0156C365.188 72.3906 365 71.7969 365 71.2344C365 70.7344 365.188 69.7812 365.562 68.375C365.938 66.9688 366.391 65.3281 366.922 63.4531C365.516 65.3594 364.141 67.0469 362.797 68.5156C361.453 69.9531 360.219 71.1875 359.094 72.2188C357.969 73.25 356.984 74.0781 356.141 74.7031C355.297 75.3594 354.672 75.8281 354.266 76.1094C354.016 76.2656 353.719 76.375 353.375 76.4375C353.031 76.5312 352.719 76.5781 352.438 76.5781C351.844 76.5781 351.188 76.3906 350.469 76.0156C349.75 75.6719 349.094 75.2344 348.5 74.7031C347.875 74.1719 347.359 73.5781 346.953 72.9219C346.516 72.2656 346.297 71.6406 346.297 71.0469C346.297 70.3594 346.531 69.2188 347 67.625C347.438 66.0312 348.047 64.125 348.828 61.9062C349.578 59.6875 350.469 57.2031 351.5 54.4531C352.531 51.7031 353.641 48.8125 354.828 45.7812C354.891 45.625 354.938 45.5625 354.969 45.5938C355.031 45.5938 355.125 45.5938 355.25 45.5938C355.844 45.6875 356.656 45.9375 357.688 46.3438C358.719 46.7188 359.719 47.1406 360.688 47.6094C361.688 48.0781 362.547 48.5312 363.266 48.9688C363.984 49.375 364.344 49.6562 364.344 49.8125C364.25 50.0312 364 50.5469 363.594 51.3594C363.219 52.1719 362.766 53.1562 362.234 54.3125C361.734 55.4375 361.188 56.6719 360.594 58.0156C360.031 59.3281 359.5 60.5938 359 61.8125C358.531 63.0312 358.141 64.1406 357.828 65.1406C357.516 66.1094 357.359 66.8281 357.359 67.2969C357.359 67.4219 357.422 67.4844 357.547 67.4844C357.797 67.4844 358.344 67.1562 359.188 66.5C360.031 65.8125 361.062 64.75 362.281 63.3125C363.531 61.875 364.938 60.0312 366.5 57.7812C368.062 55.5 369.688 52.7656 371.375 49.5781L372.688 45.875C372.781 45.625 372.984 45.5 373.297 45.5C373.516 45.5 373.984 45.7188 374.703 46.1562C375.453 46.5625 376.234 47.0469 377.047 47.6094C377.891 48.1406 378.641 48.6875 379.297 49.25C379.953 49.7812 380.312 50.1562 380.375 50.375C380.375 50.4688 380.359 50.6406 380.328 50.8906C380.297 51.1094 380.25 51.2969 380.188 51.4531C379.875 52.2969 379.516 53.2969 379.109 54.4531C378.703 55.5781 378.281 56.7656 377.844 58.0156C377.438 59.2344 377.031 60.4688 376.625 61.7188C376.219 62.9688 375.844 64.1406 375.5 65.2344C375.188 66.2969 374.922 67.25 374.703 68.0938C374.516 68.9062 374.422 69.5 374.422 69.875ZM416.516 68.7969C416.516 69.5781 416.766 69.9688 417.266 69.9688C417.859 69.9688 418.562 69.7812 419.375 69.4062C420.219 69.0312 421.094 68.5469 422 67.9531C422.906 67.3281 423.828 66.6406 424.766 65.8906C425.703 65.1406 426.578 64.4062 427.391 63.6875C428.234 62.9688 428.984 62.2969 429.641 61.6719C430.297 61.0469 430.812 60.5469 431.188 60.1719C431.5 60.4531 431.875 60.8125 432.312 61.25C432.75 61.6875 433.141 62.0938 433.484 62.4688C432.672 63.2812 431.75 64.1875 430.719 65.1875C429.688 66.1875 428.578 67.2188 427.391 68.2812C426.234 69.3125 425.016 70.3281 423.734 71.3281C422.484 72.2969 421.234 73.1719 419.984 73.9531C418.734 74.7031 417.516 75.3125 416.328 75.7812C415.141 76.25 414.016 76.4844 412.953 76.4844C412.391 76.4844 411.703 76.2188 410.891 75.6875C410.078 75.1875 409.297 74.5625 408.547 73.8125C407.797 73.0625 407.156 72.2812 406.625 71.4688C406.125 70.625 405.875 69.875 405.875 69.2188C405.875 67.7812 405.969 66.2812 406.156 64.7188C404.75 65.9688 403.391 67.1562 402.078 68.2812C400.766 69.4062 399.438 70.4688 398.094 71.4688C396.781 72.4375 395.422 73.3281 394.016 74.1406C392.641 74.9844 391.172 75.7031 389.609 76.2969C389.141 76.4844 388.734 76.5781 388.391 76.5781C388.078 76.5781 387.672 76.4219 387.172 76.1094C386.672 75.7969 386.188 75.3906 385.719 74.8906C385.25 74.4219 384.844 73.8906 384.5 73.2969C384.156 72.6719 383.984 72.0781 383.984 71.5156C383.984 70.2344 384.234 68.8125 384.734 67.25C385.203 65.6562 385.906 64.0312 386.844 62.375C387.75 60.6875 388.875 59.0156 390.219 57.3594C391.531 55.6719 393.031 54.0938 394.719 52.625C396.406 51.125 398.266 49.7812 400.297 48.5938C402.328 47.375 404.5 46.4062 406.812 45.6875C407.25 45.75 407.812 45.9531 408.5 46.2969C409.188 46.6094 409.828 46.9375 410.422 47.2812C411.547 44.0625 412.828 40.8438 414.266 37.625C415.734 34.375 417.281 31.2656 418.906 28.2969C420.562 25.2969 422.281 22.5 424.062 19.9062C425.844 17.2812 427.625 14.9688 429.406 12.9688C431.188 10.9375 432.938 9.29688 434.656 8.04688C436.406 6.79687 438.062 6.03125 439.625 5.75C440.312 5.75 441.031 5.98438 441.781 6.45312C442.562 6.89062 443.297 7.4375 443.984 8.09375C444.672 8.71875 445.25 9.375 445.719 10.0625C446.219 10.75 446.531 11.3281 446.656 11.7969C446.656 13.2344 446.297 14.9062 445.578 16.8125C444.859 18.7188 443.859 20.7812 442.578 23C441.328 25.1875 439.828 27.4844 438.078 29.8906C436.359 32.2969 434.5 34.75 432.5 37.25C430.5 39.7188 428.391 42.1875 426.172 44.6562C423.984 47.125 421.781 49.5156 419.562 51.8281C418.625 55.0156 417.875 58.0625 417.312 60.9688C416.781 63.8438 416.516 66.4531 416.516 68.7969ZM440.047 11.4219C439.516 11.4219 438.859 11.8125 438.078 12.5938C437.328 13.375 436.469 14.4688 435.5 15.875C434.562 17.25 433.562 18.8906 432.5 20.7969C431.438 22.7031 430.359 24.7812 429.266 27.0312C428.172 29.2812 427.078 31.6719 425.984 34.2031C424.891 36.7344 423.859 39.2969 422.891 41.8906C425.234 39.0156 427.453 36.1406 429.547 33.2656C431.672 30.3594 433.531 27.6094 435.125 25.0156C436.719 22.4219 437.984 20.0469 438.922 17.8906C439.859 15.7344 440.328 13.9531 440.328 12.5469C440.328 12.3594 440.312 12.125 440.281 11.8438C440.281 11.5625 440.203 11.4219 440.047 11.4219ZM395.562 67.2031C396.594 67.2031 398.125 66.4844 400.156 65.0469C402.188 63.5781 404.484 61.625 407.047 59.1875C407.328 57.75 407.672 56.2969 408.078 54.8281C408.484 53.3281 408.938 51.8125 409.438 50.2812C407.625 51.5 405.844 52.8906 404.094 54.4531C402.375 56.0156 400.844 57.5625 399.5 59.0938C398.156 60.625 397.062 62.0625 396.219 63.4062C395.406 64.7188 395 65.7188 395 66.4062C395 66.9375 395.188 67.2031 395.562 67.2031ZM459.266 68.7969C459.266 69.5781 459.516 69.9688 460.016 69.9688C460.609 69.9688 461.312 69.7812 462.125 69.4062C462.969 69.0312 463.844 68.5469 464.75 67.9531C465.656 67.3281 466.578 66.6406 467.516 65.8906C468.453 65.1406 469.328 64.4062 470.141 63.6875C470.984 62.9688 471.734 62.2969 472.391 61.6719C473.047 61.0469 473.562 60.5469 473.938 60.1719C474.25 60.4531 474.625 60.8125 475.062 61.25C475.5 61.6875 475.891 62.0938 476.234 62.4688C475.422 63.2812 474.5 64.1875 473.469 65.1875C472.438 66.1875 471.328 67.2188 470.141 68.2812C468.984 69.3125 467.766 70.3281 466.484 71.3281C465.234 72.2969 463.984 73.1719 462.734 73.9531C461.484 74.7031 460.266 75.3125 459.078 75.7812C457.891 76.25 456.766 76.4844 455.703 76.4844C455.141 76.4844 454.453 76.2188 453.641 75.6875C452.828 75.1875 452.047 74.5625 451.297 73.8125C450.547 73.0625 449.906 72.2812 449.375 71.4688C448.875 70.625 448.625 69.875 448.625 69.2188C448.625 67.7812 448.719 66.2812 448.906 64.7188C447.5 65.9688 446.141 67.1562 444.828 68.2812C443.516 69.4062 442.188 70.4688 440.844 71.4688C439.531 72.4375 438.172 73.3281 436.766 74.1406C435.391 74.9844 433.922 75.7031 432.359 76.2969C431.891 76.4844 431.484 76.5781 431.141 76.5781C430.828 76.5781 430.422 76.4219 429.922 76.1094C429.422 75.7969 428.938 75.3906 428.469 74.8906C428 74.4219 427.594 73.8906 427.25 73.2969C426.906 72.6719 426.734 72.0781 426.734 71.5156C426.734 70.2344 426.984 68.8125 427.484 67.25C427.953 65.6562 428.656 64.0312 429.594 62.375C430.5 60.6875 431.625 59.0156 432.969 57.3594C434.281 55.6719 435.781 54.0938 437.469 52.625C439.156 51.125 441.016 49.7812 443.047 48.5938C445.078 47.375 447.25 46.4062 449.562 45.6875C450 45.75 450.562 45.9531 451.25 46.2969C451.938 46.6094 452.578 46.9375 453.172 47.2812C454.297 44.0625 455.578 40.8438 457.016 37.625C458.484 34.375 460.031 31.2656 461.656 28.2969C463.312 25.2969 465.031 22.5 466.812 19.9062C468.594 17.2812 470.375 14.9688 472.156 12.9688C473.938 10.9375 475.688 9.29688 477.406 8.04688C479.156 6.79687 480.812 6.03125 482.375 5.75C483.062 5.75 483.781 5.98438 484.531 6.45312C485.312 6.89062 486.047 7.4375 486.734 8.09375C487.422 8.71875 488 9.375 488.469 10.0625C488.969 10.75 489.281 11.3281 489.406 11.7969C489.406 13.2344 489.047 14.9062 488.328 16.8125C487.609 18.7188 486.609 20.7812 485.328 23C484.078 25.1875 482.578 27.4844 480.828 29.8906C479.109 32.2969 477.25 34.75 475.25 37.25C473.25 39.7188 471.141 42.1875 468.922 44.6562C466.734 47.125 464.531 49.5156 462.312 51.8281C461.375 55.0156 460.625 58.0625 460.062 60.9688C459.531 63.8438 459.266 66.4531 459.266 68.7969ZM482.797 11.4219C482.266 11.4219 481.609 11.8125 480.828 12.5938C480.078 13.375 479.219 14.4688 478.25 15.875C477.312 17.25 476.312 18.8906 475.25 20.7969C474.188 22.7031 473.109 24.7812 472.016 27.0312C470.922 29.2812 469.828 31.6719 468.734 34.2031C467.641 36.7344 466.609 39.2969 465.641 41.8906C467.984 39.0156 470.203 36.1406 472.297 33.2656C474.422 30.3594 476.281 27.6094 477.875 25.0156C479.469 22.4219 480.734 20.0469 481.672 17.8906C482.609 15.7344 483.078 13.9531 483.078 12.5469C483.078 12.3594 483.062 12.125 483.031 11.8438C483.031 11.5625 482.953 11.4219 482.797 11.4219ZM438.312 67.2031C439.344 67.2031 440.875 66.4844 442.906 65.0469C444.938 63.5781 447.234 61.625 449.797 59.1875C450.078 57.75 450.422 56.2969 450.828 54.8281C451.234 53.3281 451.688 51.8125 452.188 50.2812C450.375 51.5 448.594 52.8906 446.844 54.4531C445.125 56.0156 443.594 57.5625 442.25 59.0938C440.906 60.625 439.812 62.0625 438.969 63.4062C438.156 64.7188 437.75 65.7188 437.75 66.4062C437.75 66.9375 437.938 67.2031 438.312 67.2031ZM500.188 70.0625C500.656 70.0625 501.281 69.8594 502.062 69.4531C502.844 69.0469 503.703 68.5312 504.641 67.9062C505.609 67.2812 506.594 66.5938 507.594 65.8438C508.594 65.0625 509.547 64.3125 510.453 63.5938C511.391 62.8438 512.219 62.1719 512.938 61.5781C513.656 60.9531 514.203 60.4844 514.578 60.1719C514.859 60.4531 515.188 60.8125 515.562 61.25C515.969 61.6875 516.344 62.0938 516.688 62.4688C516 63.1562 515.141 63.9844 514.109 64.9531C513.078 65.8906 511.969 66.8594 510.781 67.8594C509.594 68.8594 508.359 69.8438 507.078 70.8125C505.797 71.7812 504.547 72.6562 503.328 73.4375C502.109 74.2188 500.969 74.8438 499.906 75.3125C498.844 75.7812 497.953 76.0156 497.234 76.0156C496.641 76.0156 495.938 75.8594 495.125 75.5469C494.344 75.2656 493.578 74.8906 492.828 74.4219C492.109 73.9844 491.484 73.5 490.953 72.9688C490.453 72.4062 490.203 71.8594 490.203 71.3281C490.234 69.9844 490.484 68.4219 490.953 66.6406C491.422 64.8594 491.969 63.0312 492.594 61.1562C493.25 59.2812 493.938 57.4375 494.656 55.625C495.406 53.7812 496.094 52.1406 496.719 50.7031C496.469 50.7656 495.984 51.1094 495.266 51.7344C494.547 52.3594 493.672 53.2188 492.641 54.3125C491.641 55.375 490.531 56.6719 489.312 58.2031C488.125 59.7031 486.938 61.3906 485.75 63.2656C484.594 65.1406 483.484 67.1719 482.422 69.3594C481.359 71.5156 480.469 73.7969 479.75 76.2031C479.656 76.5469 479.516 76.7969 479.328 76.9531C479.172 77.1094 478.891 77.1875 478.484 77.1875C478.203 77.1875 477.766 77.0469 477.172 76.7656C476.578 76.4844 475.953 76.1406 475.297 75.7344C474.641 75.3594 474 74.9531 473.375 74.5156C472.75 74.0781 472.25 73.6875 471.875 73.3438C471.688 73.125 471.531 72.9219 471.406 72.7344C471.281 72.5469 471.219 72.2656 471.219 71.8906C471.219 69.8281 471.562 67.2969 472.25 64.2969C472.938 61.2969 473.891 58.0469 475.109 54.5469C476.297 51.0156 477.688 47.3438 479.281 43.5312C480.906 39.6875 482.625 35.9219 484.438 32.2344C486.281 28.5469 488.188 25.0469 490.156 21.7344C492.156 18.3906 494.109 15.4531 496.016 12.9219C497.953 10.3594 499.797 8.3125 501.547 6.78125C503.328 5.21875 504.953 4.39062 506.422 4.29688C507.141 4.51563 507.859 4.85938 508.578 5.32812C509.328 5.79688 510.031 6.3125 510.688 6.875C511.344 7.4375 511.922 7.98438 512.422 8.51562C512.953 9.04687 513.359 9.5 513.641 9.875C513.828 10.125 513.953 10.4219 514.016 10.7656C514.078 11.1094 514.109 11.3594 514.109 11.5156C514.109 12.6406 513.797 14.0312 513.172 15.6875C512.547 17.3438 511.672 19.2031 510.547 21.2656C509.422 23.3281 508.047 25.5469 506.422 27.9219C504.828 30.2656 503.047 32.6875 501.078 35.1875C499.141 37.6562 497.031 40.1562 494.75 42.6875C492.5 45.2188 490.141 47.6719 487.672 50.0469C487.047 51.7344 486.484 53.375 485.984 54.9688C487.672 53.2188 489.219 51.75 490.625 50.5625C492.031 49.375 493.281 48.4375 494.375 47.75C495.469 47.0312 496.391 46.5312 497.141 46.25C497.922 45.9375 498.516 45.7812 498.922 45.7812C499.203 45.7812 499.703 45.9688 500.422 46.3438C501.141 46.6875 501.891 47.1094 502.672 47.6094C503.453 48.1094 504.172 48.625 504.828 49.1562C505.484 49.6875 505.891 50.125 506.047 50.4688C506.109 50.625 506.109 50.8438 506.047 51.125C505.984 51.375 505.922 51.5781 505.859 51.7344C505.578 52.5781 505.234 53.5625 504.828 54.6875C504.453 55.7812 504.031 56.9531 503.562 58.2031C503.125 59.4219 502.688 60.6562 502.25 61.9062C501.812 63.1562 501.422 64.3125 501.078 65.375C500.734 66.4062 500.453 67.3281 500.234 68.1406C500.016 68.9219 499.906 69.4688 499.906 69.7812C499.906 69.9688 500 70.0625 500.188 70.0625ZM496.062 29.75C495.312 31.3438 494.578 32.9375 493.859 34.5312C493.172 36.0938 492.5 37.6719 491.844 39.2656C493.938 36.5781 495.969 33.8594 497.938 31.1094C499.906 28.3281 501.656 25.6719 503.188 23.1406C504.75 20.5781 506 18.2188 506.938 16.0625C507.875 13.9062 508.344 12.0938 508.344 10.625C508.344 9.9375 508.219 9.59375 507.969 9.59375C507.594 9.59375 507.016 10.1094 506.234 11.1406C505.484 12.1406 504.578 13.5312 503.516 15.3125C502.453 17.0938 501.281 19.2188 500 21.6875C498.75 24.1562 497.438 26.8438 496.062 29.75ZM540.781 69.875C540.781 70.0625 540.875 70.1562 541.062 70.1562C541.344 70.1562 541.812 69.9531 542.469 69.5469C543.125 69.1406 543.875 68.625 544.719 68C545.562 67.375 546.453 66.6719 547.391 65.8906C548.359 65.1094 549.281 64.3438 550.156 63.5938C551.031 62.8438 551.812 62.1562 552.5 61.5312C553.219 60.9062 553.766 60.4219 554.141 60.0781C554.422 60.3594 554.766 60.7344 555.172 61.2031C555.609 61.6719 556 62.0938 556.344 62.4688C555.594 63.1562 554.688 64 553.625 65C552.594 65.9688 551.469 66.9844 550.25 68.0469C549.062 69.1094 547.828 70.1719 546.547 71.2344C545.266 72.2656 544.016 73.1875 542.797 74C541.578 74.8125 540.422 75.4688 539.328 75.9688C538.234 76.5 537.281 76.7656 536.469 76.7656C535.906 76.7656 535.281 76.6562 534.594 76.4375C533.938 76.2188 533.328 75.9062 532.766 75.5C532.203 75.125 531.734 74.6719 531.359 74.1406C530.984 73.6094 530.797 73.0156 530.797 72.3594C530.797 72.1094 530.781 71.8125 530.75 71.4688C530.75 71.0938 530.781 70.625 530.844 70.0625C530.906 69.4688 531.031 68.7656 531.219 67.9531C531.406 67.1094 531.688 66.0781 532.062 64.8594C531.031 65.9531 529.812 67.0938 528.406 68.2812C527.031 69.4688 525.578 70.5938 524.047 71.6562C522.516 72.7188 520.969 73.6719 519.406 74.5156C517.875 75.3906 516.453 76.0469 515.141 76.4844C514.984 76.5469 514.859 76.5781 514.766 76.5781C514.672 76.5781 514.578 76.5781 514.484 76.5781C514.172 76.5781 513.766 76.4219 513.266 76.1094C512.734 75.7969 512.219 75.375 511.719 74.8438C511.219 74.3438 510.797 73.7656 510.453 73.1094C510.078 72.4531 509.891 71.7969 509.891 71.1406C509.891 70.9531 509.984 70.3281 510.172 69.2656C510.359 68.2031 510.812 66.8594 511.531 65.2344C512.219 63.5781 513.25 61.7344 514.625 59.7031C516 57.6406 517.875 55.5312 520.25 53.375C521.469 52.2812 522.781 51.25 524.188 50.2812C525.375 49.4688 526.734 48.6406 528.266 47.7969C529.797 46.9531 531.406 46.2812 533.094 45.7812C533.156 45.7812 533.203 45.7656 533.234 45.7344C533.297 45.7031 533.375 45.7188 533.469 45.7812C533.844 45.9062 534.281 46.1094 534.781 46.3906C535.312 46.6406 535.828 46.9219 536.328 47.2344C536.859 47.5156 537.312 47.8125 537.688 48.125C538.094 48.4062 538.359 48.6406 538.484 48.8281C538.516 48.8906 538.516 48.9375 538.484 48.9688L538.391 49.0625C536.984 49.8125 535.656 50.6562 534.406 51.5938C533.156 52.5 532.047 53.3594 531.078 54.1719C529.953 55.1406 528.906 56.0938 527.938 57.0312C525.656 59.2812 524.078 61.2344 523.203 62.8906C522.328 64.5156 521.891 65.6875 521.891 66.4062C521.891 66.9375 522.109 67.2031 522.547 67.2031C522.984 67.2031 523.531 67.0312 524.188 66.6875C524.875 66.3125 525.641 65.8281 526.484 65.2344C527.328 64.6094 528.25 63.8906 529.25 63.0781C530.281 62.2344 531.344 61.3594 532.438 60.4531C533.406 59.6719 534.344 58.8281 535.25 57.9219C536.031 57.1719 536.844 56.3125 537.688 55.3438C538.531 54.375 539.25 53.3906 539.844 52.3906C539.844 52.3594 539.859 52.3281 539.891 52.2969C539.922 52.2656 539.969 52.2656 540.031 52.2969C540.375 52.5469 540.766 52.9688 541.203 53.5625C541.641 54.125 542.047 54.75 542.422 55.4375C542.797 56.125 543.109 56.7969 543.359 57.4531C543.641 58.0781 543.781 58.5625 543.781 58.9062C543.062 60.375 542.5 61.7188 542.094 62.9375C541.719 64.125 541.422 65.1719 541.203 66.0781C541.016 66.9844 540.891 67.7656 540.828 68.4219C540.797 69.0469 540.781 69.5312 540.781 69.875Z" fill="#F2F2F2"/>
</svg>
