<?xml version="1.0" encoding="UTF-8"?>
<!DOCTYPE svg PUBLIC "-//W3C//DTD SVG 1.1//EN" "http://www.w3.org/Graphics/SVG/1.1/DTD/svg11.dtd">
<!-- Creator: CorelDRAW X6 -->
<svg xmlns="http://www.w3.org/2000/svg" xml:space="preserve" width="5.06944in" height="1.48611in" version="1.1" style="shape-rendering:geometricPrecision; text-rendering:geometricPrecision; image-rendering:optimizeQuality; fill-rule:evenodd; clip-rule:evenodd"
viewBox="0 0 5069 1486"
 xmlns:xlink="http://www.w3.org/1999/xlink">
 <defs>
  <style type="text/css">
   <![CDATA[
    .fil0 {fill:#4E83C2;fill-rule:nonzero}
   ]]>
  </style>
 </defs>
 <g id="Layer_x0020_1">
  <metadata id="CorelCorpID_0Corel-Layer"/>
  <path class="fil0" d="M3068 52l279 0 1 228 -281 0 0 -228zm-1290 -62l-7 0c-58,0 -126,9 -198,26 -55,13 -60,13 -115,7 -55,-6 -159,-5 -204,1 -129,19 -235,68 -313,145 -46,46 -71,84 -90,138l-8 23 -49 32c-27,18 -79,53 -115,80 -422,303 -665,587 -679,796 0,4 0,8 0,12 0,29 6,60 17,81 4,8 18,25 30,37 44,43 111,66 212,72 109,6 289,-26 442,-80 15,-5 33,-12 40,-14 7,-2 12,-6 12,-8 -1,-2 -3,-3 -5,-2 -2,0 -27,7 -54,14 -63,17 -126,30 -179,36 -49,5 -132,6 -168,1 -59,-8 -112,-28 -141,-53 -90,-79 -44,-269 111,-466 150,-188 424,-408 709,-567 90,-51 218,-111 309,-147 41,-16 148,-53 151,-52 1,0 -15,8 -36,17 -52,22 -158,75 -215,108 -128,73 -238,149 -357,243 -47,38 -46,34 -36,72 18,71 59,131 122,177 33,25 40,29 79,48 67,33 127,53 294,95 126,32 175,47 216,66 81,38 118,90 112,158 -9,102 -109,160 -273,160 -185,0 -297,-84 -310,-233l-2 -25 -298 0 0 11c0,46 12,116 28,160 65,184 247,303 496,323 122,10 253,-5 354,-42 133,-46 232,-136 275,-247 44,-112 38,-245 -13,-339 -41,-74 -114,-136 -210,-177 -44,-19 -85,-31 -206,-62 -248,-63 -308,-84 -345,-117 -22,-20 -30,-39 -32,-74 -2,-48 9,-82 40,-112 23,-22 52,-38 94,-49 27,-7 36,-8 81,-8 56,0 87,3 125,15 86,25 133,82 146,172l3 25 298 0 -2 -31c-5,-85 -27,-154 -69,-216 -20,-31 -73,-82 -106,-104 -28,-18 -87,-50 -95,-50 -3,0 -3,-1 -1,-3 1,-1 19,-6 39,-9 50,-9 133,-11 164,-4 89,19 133,86 106,162 -4,11 -5,18 -3,19 4,2 3,3 13,-18 50,-106 18,-184 -85,-213 -27,-7 -60,-11 -98,-12zm1655 446l265 0 0 95c0,53 1,95 2,95 1,0 5,-7 9,-16 11,-25 36,-61 59,-86 52,-55 119,-92 195,-108 28,-6 84,-7 107,-1l17 4 0 260 -10 -2c-26,-5 -77,-8 -109,-7 -122,6 -200,65 -236,180 -18,56 -19,69 -19,348l0 254 -279 0 0 -1016zm-364 1015l0 -1015 278 0 0 1015 -278 0zm-1039 -700l0 -701 278 0 4 528c2,0 8,-7 14,-15 15,-23 57,-65 84,-85 42,-30 95,-53 146,-63 11,-2 40,-4 68,-3 190,1 301,77 341,235 18,71 18,67 19,453l1 352 -281 0 0 -313c0,-331 -1,-344 -14,-391 -12,-43 -42,-83 -72,-98 -30,-15 -48,-19 -96,-18 -67,0 -105,13 -141,47 -24,22 -39,48 -51,85 -19,61 -19,56 -20,388l-1 301 -277 0 0 -700 -1 0zm2756 83c2,-4 -11,-59 -22,-86 -24,-60 -64,-100 -119,-118 -30,-9 -93,-13 -127,-7 -86,15 -148,69 -173,153 -7,22 -12,55 -10,59 2,3 450,3 452,0zm-279 642c-255,-26 -426,-206 -450,-473 -19,-214 67,-408 228,-513 165,-108 405,-109 561,-4 114,78 191,211 214,370 4,28 8,88 8,122l0 4c0,10 0,17 -1,20l-2 8 -733 0 1 14c8,90 35,155 82,193 23,19 62,37 95,44 42,8 101,8 139,-1 66,-17 132,-65 149,-109l5 -13 122 0c72,0 122,1 122,3 0,6 -21,58 -35,85 -75,151 -199,233 -374,250 -37,4 -93,4 -131,0z"/>
 </g>
</svg>
