<?xml version="1.0" encoding="UTF-8" standalone="no"?>
<svg
   xmlns:dc="http://purl.org/dc/elements/1.1/"
   xmlns:cc="http://creativecommons.org/ns#"
   xmlns:rdf="http://www.w3.org/1999/02/22-rdf-syntax-ns#"
   xmlns:svg="http://www.w3.org/2000/svg"
   xmlns="http://www.w3.org/2000/svg"
   viewBox="0 0 493.33334 117.26667"
   height="117.26667"
   width="493.33334"
   xml:space="preserve"
   id="svg2"
   version="1.1"><metadata
     id="metadata8"><rdf:RDF><cc:Work
         rdf:about=""><dc:format>image/svg+xml</dc:format><dc:type
           rdf:resource="http://purl.org/dc/dcmitype/StillImage" /></cc:Work></rdf:RDF></metadata><defs
     id="defs6" /><g
     transform="matrix(1.3333333,0,0,-1.3333333,0,117.26667)"
     id="g10"><g
       transform="scale(0.1)"
       id="g12"><path
         id="path14"
         style="fill:#f9b41c;fill-opacity:1;fill-rule:nonzero;stroke:none"
         d="m 3250.09,583.395 c 20.6,0 37.57,10.718 39.86,24.558 l 20.34,230.086 c 0,22.746 -26.64,41.414 -60.14,41.414 -33.46,0 -60.08,-18.668 -60.08,-41.414 l 20.33,-230.086 c 2.24,-13.84 19.2,-24.558 39.75,-24.558 h -0.06" /><path
         id="path16"
         style="fill:#f9b41c;fill-opacity:1;fill-rule:nonzero;stroke:none"
         d="m 3125.73,511.527 c 10.34,17.825 9.56,37.856 -1.34,46.758 l -189.12,132.664 c -19.66,11.387 -49.14,-2.32 -65.88,-31.34 -16.78,-28.976 -13.81,-61.351 5.8,-72.738 l 209.41,-97.504 c 13.09,-4.855 30.94,4.485 41.2,22.293 l -0.07,-0.133" /><path
         id="path18"
         style="fill:#f9b41c;fill-opacity:1;fill-rule:nonzero;stroke:none"
         d="m 3374.55,511.648 c 10.32,-17.808 28.08,-27.152 41.18,-22.296 l 209.42,97.507 c 19.73,11.383 22.54,43.758 5.9,72.739 -16.81,28.992 -46.35,42.726 -65.96,31.336 L 3375.96,558.273 c -10.82,-8.89 -11.62,-28.937 -1.34,-46.761 l -0.08,0.136" /><path
         id="path20"
         style="fill:#f9b41c;fill-opacity:1;fill-rule:nonzero;stroke:none"
         d="m 3250.09,295.98 c 20.6,0 37.57,-10.625 39.86,-24.48 L 3310.29,41.4414 C 3310.29,18.6289 3283.65,0 3250.15,0 c -33.46,0 -60.08,18.6289 -60.08,41.4414 L 3210.4,271.5 c 2.24,13.855 19.2,24.48 39.75,24.48 h -0.06" /><path
         id="path22"
         style="fill:#f9b41c;fill-opacity:1;fill-rule:nonzero;stroke:none"
         d="m 3374.55,367.859 c 10.32,17.868 28.08,27.125 41.18,22.215 l 209.42,-97.437 c 19.73,-11.399 22.54,-43.801 5.9,-72.809 -16.81,-28.894 -46.35,-42.668 -65.96,-31.297 L 3375.96,321.07 c -10.82,8.961 -11.62,29.024 -1.34,46.828 h -0.08" /><path
         id="path24"
         style="fill:#f9b41c;fill-opacity:1;fill-rule:nonzero;stroke:none"
         d="m 3125.73,367.887 c 10.34,-17.797 9.56,-37.856 -1.34,-46.828 L 2935.27,188.52 c -19.66,-11.375 -49.14,2.402 -65.88,31.296 -16.78,29.004 -13.81,61.411 5.8,72.809 l 209.41,97.438 c 13.09,4.91 30.94,-4.352 41.2,-22.215 h -0.07" /><path
         id="path26"
         style="fill:#406fbf;fill-opacity:1;fill-rule:nonzero;stroke:none"
         d="m 2160.69,413.301 c 0,86.867 -37.12,163.301 -162.54,163.301 -64.38,0 -115.48,-18.082 -143.37,-34.2 l 20.43,-69.836 c 25.49,16.09 66.11,29.414 104.55,29.414 63.62,0.176 74.04,-36.027 74.04,-59.199 v -5.48 c -138.68,0.207 -226.33,-47.813 -226.33,-145.629 0,-59.774 44.64,-115.754 122.25,-115.754 47.69,0 87.63,19.039 111.54,49.559 h 2.36 c 0,0 15.82,-66.262 103.14,-40.911 -4.56,27.559 -6.06,56.973 -6.06,92.348 v 136.387 m -103.55,-91.809 c 0,-7.062 -0.62,-14.344 -2.56,-20.738 -8.02,-26.566 -35.52,-49.027 -69.93,-49.027 -28.69,0 -51.48,16.296 -51.48,50.714 0,52.684 57.98,67.235 123.99,66.864 v -47.813 h -0.02" /><path
         id="path28"
         style="fill:#406fbf;fill-opacity:1;fill-rule:nonzero;stroke:none"
         d="m 0,694.902 c 0,0 90.6172,-371.324 105.09,-431.586 16.883,-70.336 47.305,-96.234 134.976,-78.753 l 56.582,230.207 c 14.344,57.207 23.946,98 33.192,156.132 h 1.609 c 6.492,-58.75 15.696,-99.101 27.508,-156.324 0,0 23.02,-104.512 34.828,-159.387 11.824,-54.863 44.731,-89.461 130.617,-70.628 L 659.23,694.918 H 550.406 L 504.355,474.254 C 491.973,410.051 480.746,359.84 472.09,301.105 h -1.543 c -7.867,58.204 -17.891,106.383 -30.465,168.95 L 392.176,694.918 H 278.77 L 227.492,475.727 C 212.984,409.098 199.375,355.328 190.754,298.555 h -1.566 c -8.852,53.461 -20.633,121.074 -33.383,185.535 0,0 -30.438,156.781 -41.145,210.828 H 0" /><path
         id="path30"
         style="fill:#406fbf;fill-opacity:1;fill-rule:nonzero;stroke:none"
         d="m 968.602,413.301 c 0,86.867 -37.122,163.301 -162.512,163.301 -64.395,0 -115.535,-18.082 -143.41,-34.2 l 20.402,-69.836 c 25.488,16.09 66.113,29.414 104.57,29.414 63.657,0.176 74.075,-36.027 74.075,-59.199 v -5.48 c -138.731,0.207 -226.348,-47.813 -226.348,-145.629 0,-59.774 44.621,-115.754 122.176,-115.754 47.758,0 87.672,19.039 111.605,49.559 h 2.332 c 0,0 15.86,-66.262 103.164,-40.911 -4.566,27.559 -6.054,56.973 -6.054,92.348 v 136.387 m -103.52,-91.809 c 0,-7.062 -0.629,-14.344 -2.59,-20.738 -8.008,-26.566 -35.523,-49.027 -69.929,-49.027 -28.696,0 -51.454,16.296 -51.454,50.714 0,52.684 57.969,67.235 123.989,66.864 v -47.813 h -0.016" /><path
         id="path32"
         style="fill:#406fbf;fill-opacity:1;fill-rule:nonzero;stroke:none"
         d="M 1141.37,292.895 V 694.902 H 1037.71 V 184.551 h 103.66 v 108.344" /><path
         id="path34"
         style="fill:#406fbf;fill-opacity:1;fill-rule:nonzero;stroke:none"
         d="m 2497.35,694.902 c 0,-48.957 0,-376.476 0,-376.476 0,-51.934 9.79,-88.274 30.67,-110.516 18.28,-19.449 48.34,-32.035 84.38,-32.035 30.66,0 60.8,5.852 75.02,11.129 l -1.34,80.976 c -10.58,-2.589 -22.73,-4.675 -39.37,-4.675 -35.32,0 -47.13,22.625 -47.13,69.222 v 144.047 h 90.27 v 97.656 h -90.27 v 120.672 h -102.23" /><path
         id="path36"
         style="fill:#406fbf;fill-opacity:1;fill-rule:nonzero;stroke:none"
         d="M 2229.8,567.945 V 184.551 h 106.93 v 196.304 c 0,10.61 0.64,19.86 2.32,28.313 7.91,41.141 39.35,67.406 84.52,67.406 12.38,0 21.25,-1.347 30.85,-2.711 V 574.23 c -8.06,1.61 -13.53,2.36 -23.55,2.36 -39.91,0 -85.31,-25.746 -104.36,-80.977 h -2.89 v 72.332 h -93.82" /><path
         id="path38"
         style="fill:#406fbf;fill-opacity:1;fill-rule:nonzero;stroke:none"
         d="M 1213.95,567.945 V 184.551 h 104.17 v 224.82 c 0,10.555 1.24,21.711 4.9,31.379 8.63,22.637 29.7,49.148 63.31,49.148 42.06,0 61.7,-35.539 61.7,-86.828 V 184.566 h 104.09 v 227.563 c 0,10.062 1.38,22.199 4.35,31.078 8.55,25.762 31.24,46.707 62.5,46.707 42.61,0 63.07,-34.91 63.07,-95.281 0,0 0,-161.942 0,-210.055 h 104.16 v 225.817 c 0,119.082 -60.47,166.222 -128.73,166.222 -30.21,0 -54.08,-7.566 -75.66,-20.781 -18.13,-11.172 -34.38,-26.988 -48.57,-47.785 h -1.54 c -16.46,41.32 -55.19,68.566 -105.66,68.566 -64.84,0 -93.98,-32.867 -111.66,-60.738 h -1.55 v 52.09 h -98.88" /><path
         id="path40"
         style="fill:#f9b41c;fill-opacity:1;fill-rule:nonzero;stroke:none"
         d="m 3680.08,221.672 c 11.08,0 19.92,-8.731 19.92,-19.504 0,-10.895 -8.84,-19.637 -20.07,-19.637 -11.24,0 -20.19,8.754 -20.19,19.637 0,10.773 8.96,19.504 20.19,19.504 h 0.12 m -0.33,-4.899 c -7.95,0 -13.95,-6.476 -13.95,-14.742 0,-8.047 6.01,-14.605 14.17,-14.605 8.18,-0.137 14.2,6.558 14.2,14.742 0,8.141 -6.02,14.605 -14.3,14.605 h -0.12 z m -2.29,-23.918 h -5.54 v 18.04 c 1.26,0.246 4.19,0.683 7.94,0.683 4.08,0 5.91,-0.57 7.24,-1.473 1.13,-0.792 1.95,-2.14 1.95,-3.957 0,-1.851 -1.7,-3.421 -4.21,-4.101 v -0.234 c 2.04,-0.547 3.16,-2.032 3.75,-4.637 0.56,-2.606 0.9,-3.668 1.25,-4.321 h -6.27 c -0.55,0.665 -0.87,2.262 -1.24,3.86 -0.36,1.824 -1.21,2.738 -3.07,2.738 h -1.81 v -6.598 h 0.01 z m 0.25,10.336 h 1.56 c 2.09,0 3.43,0.872 3.43,2.141 0,1.461 -1.26,2.25 -3.19,2.25 -0.67,0 -1.35,-0.137 -1.8,-0.137 v -4.293 0.039" /></g></g></svg>