<?xml version="1.0" encoding="UTF-8" standalone="no"?>
<svg
   xmlns:dc="http://purl.org/dc/elements/1.1/"
   xmlns:cc="http://creativecommons.org/ns#"
   xmlns:rdf="http://www.w3.org/1999/02/22-rdf-syntax-ns#"
   xmlns:svg="http://www.w3.org/2000/svg"
   xmlns="http://www.w3.org/2000/svg"
   viewBox="0 0 466.66666 466.66666"
   height="466.66666"
   width="466.66666"
   xml:space="preserve"
   id="svg2"
   version="1.1"><metadata
     id="metadata8"><rdf:RDF><cc:Work
         rdf:about=""><dc:format>image/svg+xml</dc:format><dc:type
           rdf:resource="http://purl.org/dc/dcmitype/StillImage" /></cc:Work></rdf:RDF></metadata><defs
     id="defs6" /><g
     transform="matrix(1.3333333,0,0,-1.3333333,0,466.66667)"
     id="g10"><g
       transform="scale(0.1)"
       id="g12"><path
         id="path14"
         style="fill:#ce1e25;fill-opacity:1;fill-rule:nonzero;stroke:none"
         d="M 0,0 H 3500 V 3500 H 0 Z" /><path
         id="path16"
         style="fill:#efee0e;fill-opacity:1;fill-rule:nonzero;stroke:none"
         d="m 800.016,1434.95 c 0,40.03 -4.996,75 -19.985,105.03 -19.984,25.03 -55.008,29.93 -110.019,29.93 H 545.004 v -149.94 h 40.019 c 60.008,0 70,14.98 70,89.93 h 50.012 v -249.97 h -50.012 c 0,85.04 -9.992,105.03 -70,105.03 H 545.004 V 1234.9 c 0,-45.02 4.996,-45.02 50.012,-45.02 h 55.011 v -59.9 H 345 v 59.9 h 29.977 c 40.019,0 55.011,5.05 55.011,45.02 0,295.09 0,0 0,295.09 0,39.92 -15.039,44.91 -55.011,44.91 H 345 v 54.96 c 510.027,0 0,0 510.027,0 v -194.95 h -55.011 v 0.04" /><path
         id="path18"
         style="fill:#efee0e;fill-opacity:1;fill-rule:nonzero;stroke:none"
         d="m 1670.03,1425.01 -105.02,-5.04 v 154.98 h 105.02 c 70,0 105.03,-19.98 105.03,-74.99 v -5.05 c -0.05,-49.91 -35.03,-69.9 -105.03,-69.9 z m -680.003,-75.04 79.993,190.06 75,-190.06 z m 960.003,-80.04 h -45.02 c 0,-54.96 0,-80 -29.98,-80 -14.99,0 -29.97,15.09 -29.97,45.02 0,10.04 0,19.99 0,25.03 -5,69.95 -19.99,99.98 -105.03,125.01 94.98,9.94 149.99,54.96 149.99,124.91 0,85.04 -60,120.01 -185.01,120.01 h -345 v -54.96 h 40.02 c 45.02,0 50.01,-5.04 50.01,-44.92 v -295.08 c 0,-34.97 -19.98,-45.02 -50.01,-45.02 h -35.02 c -29.98,0 -45.02,10.05 -60.01,45.02 l -159.98,394.96 H 1025 L 854.977,1234.95 c -14.989,-34.97 -24.981,-45.02 -65,-45.02 h -19.989 v -59.9 H 1030 v 59.9 h -55.012 c -24.98,0 -40.019,0 -40.019,15.09 0,5.05 4.996,14.99 9.992,25.03 l 24.984,60.01 h 190.015 l 24.98,-55.06 c 4.99,-9.94 4.99,-19.99 4.99,-24.93 0,-20.09 -14.99,-20.09 -40.02,-20.09 h -55.01 v -59.9 h 564.99 v 59.9 h -45.02 c -45.01,0 -50.01,0 -50.01,45.02 v 130.05 h 50.01 c 84.99,0 110.02,-15.08 115.02,-99.97 v -54.96 c 5,-70.05 50.01,-90.04 120.01,-90.04 59.96,0 99.98,34.98 99.98,130.06 0.15,4.85 0.15,14.89 0.15,19.79" /><path
         id="path20"
         style="fill:#efee0e;fill-opacity:1;fill-rule:nonzero;stroke:none"
         d="m 2395.05,1470.03 c -25.03,74.99 -74.99,109.97 -154.98,109.97 -79.99,0 -145.05,-65 -145.05,-194.96 0,-130.05 50.02,-195.06 145.05,-200 65,0 125.01,34.97 125.01,89.93 V 1305 c 0,34.97 -5.05,34.97 -55.01,34.97 h -24.99 v 54.96 h 234.98 v -54.96 h -19.98 c -34.98,0 -40.02,0 -40.02,-40.02 v -165.03 h -45.02 l -25.03,40.02 c -45.02,-34.97 -110.02,-54.96 -170.03,-54.96 -70,0 -125.01,25.04 -169.97,75 -50.02,50.06 -80,115.07 -80,190.06 0,79.99 24.99,140 75,189.96 45.02,45.02 110.02,65.01 180.02,65.01 54.96,0 120.01,-14.99 154.99,-54.97 l 24.98,54.97 h 40.02 v -169.98 h -49.97" /><path
         id="path22"
         style="fill:#efee0e;fill-opacity:1;fill-rule:nonzero;stroke:none"
         d="m 3020,1379.99 c 0,180.02 -120.01,200.01 -170.03,200.01 -94.98,0 -170.02,-70.05 -170.02,-200.01 0,-129.95 75.04,-200 170.02,-200 50.07,0 170.03,25.03 170.03,200 z m -169.98,-254.96 c -164.98,0 -294.98,99.98 -294.98,260.01 0,154.99 130,254.97 294.98,254.97 164.98,0 289.99,-99.98 289.99,-260.02 0,-154.98 -125.01,-254.96 -289.99,-254.96" /><path
         id="path24"
         style="fill:#efee0e;fill-opacity:1;fill-rule:nonzero;stroke:none"
         d="m 2065.05,1975.01 c -14.99,-29.98 -50.02,-35.02 -110.02,-35.02 h -125.01 v 335 c 0,39.97 10.04,45.02 60,45.02 h 35.03 v 60.01 h -299.98 v -60.01 h 24.98 c 45.01,0 70,0 70,-45.02 v -295.03 c 0,-39.97 -19.99,-44.97 -65.01,-44.97 h -25.03 v -55.01 h 515.03 v 200 c 0,0 -50.02,0 -60.01,0 0,-44.96 -5,-74.99 -19.98,-104.97" /><path
         id="path26"
         style="fill:#efee0e;fill-opacity:1;fill-rule:nonzero;stroke:none"
         d="m 1410.02,1939.99 h -159.98 v 170.02 h 35.02 c 60.01,0 70,-9.99 75,-94.98 h 55.01 v 250.02 h -55.01 c -5,-75 -14.99,-94.98 -75,-94.98 h -35.02 v 149.99 h 135 c 99.98,0 130.01,-19.99 135,-135 h 55.01 v 194.96 c -525.02,0 -29.98,0 -494.99,0 H 835.039 v -60.01 h 35.027 c 29.977,0 40.02,-5.05 40.02,-19.99 0,-10.04 0,-20.03 -4.996,-40.02 l -94.981,-250.01 c 0,0 0,0 -4.996,0 -45.019,125 -105.023,270 -105.023,270 -4.996,9.99 -4.996,15.04 -4.996,20.03 0,14.99 9.992,19.99 35.023,19.99 h 40.02 v 60.01 H 505.133 v -60.01 h 35.023 c 40.02,0 55.008,-19.99 60.004,-60.01 l -99.976,-250.01 c 0,0 0,0 -4.996,0 -45.016,135 -105.024,275 -105.024,275 -4.996,4.99 0,9.99 0,14.98 -4.996,14.99 9.992,19.99 40.02,19.99 h 19.988 v 60.06 H 200.004 v -60.01 h 9.992 c 35.024,0 64.953,-19.99 79.992,-65 L 439.98,1880.03 h 89.985 l 110.019,275 115.016,-275 h 89.984 l 140,380.02 c 19.986,45.02 29.976,60.01 74.996,60.01 h 4.99 c 45.02,0 70,0 70,-45.02 0,-295.03 0,0 0,-295.03 0,-39.97 -24.98,-44.97 -70,-44.97 H 1035 v -55.01 h 550 v 200 h -60.01 c -4.95,-100.07 -24.98,-140.04 -114.97,-140.04" /><path
         id="path28"
         style="fill:#efee0e;fill-opacity:1;fill-rule:nonzero;stroke:none"
         d="m 2620.04,2079.98 c 0,-45.01 -5,-74.99 -20.03,-105.02 -14.99,-29.98 -49.97,-35.02 -109.97,-35.02 h -120.02 v 335 c 0,39.97 10,45.02 55.01,45.02 h 40.02 v 60.06 h -305.02 v -60.01 h 35.02 c 40.02,0 59.96,0 59.96,-45.02 v -295.03 c 0,-39.97 -14.99,-44.97 -59.96,-44.97 h -10.04 v -55.01 H 2680 v 200 c 0,0 -49.97,0 -59.96,0" /><path
         id="path30"
         style="fill:#efee0e;fill-opacity:1;fill-rule:nonzero;stroke:none"
         d="m 3190.03,2025.02 c 0,-115.01 -89.99,-154.98 -219.99,-154.98 -80,0 -159.99,45.01 -175.03,60 l -19.98,-50.01 h -50.02 v 200 h 60.01 c 14.99,-94.98 79.99,-135 170.03,-139.99 79.99,-5 135,14.99 139.99,70 10,65 -60,60 -119.96,69.99 l -85.04,14.99 c -124.96,25.03 -169.97,60.01 -169.97,145.05 -5.05,89.98 79.99,149.99 189.96,149.99 55.01,0 125.01,-9.99 175.02,-50.02 l 24.98,40.03 h 45.02 v -175.03 h -55.01 c -9.99,94.98 -110.02,125.01 -190.01,125.01 -60.01,-5.04 -94.98,-35.02 -94.98,-75.04 0,-39.97 34.97,-45.02 79.99,-55.01 l 104.97,-14.99 c 110.02,-19.99 190.02,-40.02 190.02,-159.99" /></g></g></svg>