<svg xmlns="http://www.w3.org/2000/svg" width="12" height="12" viewBox="0 0 12 12">
    <g fill="#FFF" fill-rule="evenodd">
        <path fill-rule="nonzero" d="M11.664 9.24L9.24 7.625a.708.708 0 0 0-.948.154l-.706.908a.302.302 0 0 1-.387.081l-.135-.074c-.445-.243-.999-.545-2.115-1.662-1.117-1.116-1.42-1.671-1.662-2.115l-.074-.135a.302.302 0 0 1 .08-.388l.907-.706a.708.708 0 0 0 .154-.948L2.737.315A.704.704 0 0 0 1.79.1L.775.711a1.43 1.43 0 0 0-.652.845c-.365 1.33-.09 3.626 3.291 7.009 2.69 2.69 4.693 3.413 6.07 3.413.316.001.632-.04.938-.123.355-.1.659-.333.846-.652l.61-1.013a.704.704 0 0 0-.214-.95zm-.13.745L10.925 11c-.134.23-.352.4-.609.472-1.228.337-3.373.058-6.62-3.189C.45 5.035.171 2.89.508 1.662c.073-.256.242-.475.472-.61L1.994.444a.305.305 0 0 1 .412.093l.878 1.318.737 1.106a.307.307 0 0 1-.066.411l-.908.706a.699.699 0 0 0-.185.897l.072.13c.255.469.572 1.05 1.73 2.209 1.158 1.157 1.74 1.475 2.208 1.73l.13.072c.304.17.686.091.897-.185l.706-.908a.307.307 0 0 1 .412-.066l2.424 1.616c.136.09.177.272.093.412z"/>
        <path d="M6.787 1.997a3.397 3.397 0 0 1 3.394 3.394.2.2 0 1 0 .399 0 3.797 3.797 0 0 0-3.793-3.793.2.2 0 1 0 0 .4z"/>
        <path d="M6.787 3.195a2.198 2.198 0 0 1 2.196 2.196.2.2 0 0 0 .4 0 2.598 2.598 0 0 0-2.596-2.595.2.2 0 1 0 0 .4z"/>
        <path d="M6.787 4.393a1 1 0 0 1 .998.998.2.2 0 0 0 .4 0c-.001-.772-.626-1.397-1.398-1.397a.2.2 0 1 0 0 .399z"/>
    </g>
</svg>
