<svg xmlns="http://www.w3.org/2000/svg" width="15" height="12" viewBox="0 0 15 12">
    <g fill="#FFCA68" fill-rule="evenodd">
        <path d="M10.843.022H.84a.84.84 0 0 0-.84.84v6.001c0 .463.377.84.84.84h.648v2.234a.352.352 0 0 0 .601.25l2.483-2.484h.498a.352.352 0 1 0 0-.703h-.668a.35.35 0 0 0-.225.103L2.192 9.088s0-1.759-.002-1.768A.352.352 0 0 0 1.84 7h-1a.136.136 0 0 1-.136-.137V.862c0-.075.06-.136.136-.136h10.003c.075 0 .137.06.137.136v2.302a.352.352 0 0 0 .703 0V.862a.84.84 0 0 0-.84-.84z"/>
        <path fill-rule="nonzero" d="M14.073 4.325H7.07a.84.84 0 0 0-.84.84v4.094c0 .463.376.84.84.84h4.383l1.777 1.776a.352.352 0 0 0 .6-.249V10.1h.242a.84.84 0 0 0 .84-.84V5.165a.84.84 0 0 0-.84-.84zm.136 4.934a.136.136 0 0 1-.136.136h-.594a.352.352 0 0 0-.35.325l-.001 1.057-1.278-1.278-.004-.003a.35.35 0 0 0-.246-.1H7.07a.136.136 0 0 1-.136-.137V5.165c0-.075.061-.136.137-.136h7.002c.075 0 .136.06.136.136v4.094z"/>
        <path d="M10.572 6.86a.352.352 0 1 0 0 .704.352.352 0 0 0 0-.704zM9.043 2.348H2.64a.352.352 0 1 0 0 .703h6.403a.352.352 0 1 0 0-.703zM5.07 4.674H2.64a.352.352 0 1 0 0 .703h2.43a.352.352 0 1 0 0-.703zM8.937 6.86a.352.352 0 1 0 0 .704.352.352 0 0 0 0-.704zM12.206 6.86a.352.352 0 1 0 0 .704.352.352 0 0 0 0-.704z"/>
    </g>
</svg>
