<svg xmlns="http://www.w3.org/2000/svg" width="17" height="16" viewBox="0 0 17 16">
    <g fill="#000" fill-rule="evenodd">
        <path fill-rule="nonzero" d="M16.618 8.769a6.582 6.582 0 0 0-1.892-3.992 6.53 6.53 0 0 0-3.212-1.764v-.826a1.107 1.107 0 0 0-.267-2.179H8.906a1.107 1.107 0 0 0-.267 2.18v.828a6.53 6.53 0 0 0-3.755 2.388.325.325 0 0 0-.025-.001H2.542a.325.325 0 0 0 0 .65h1.9c-.239.4-.431.819-.577 1.25H.325a.325.325 0 0 0 0 .65h3.356c-.094.412-.148.83-.162 1.25H2.081a.325.325 0 0 0 0 .65H3.53c.027.422.095.84.203 1.25H1.626a.325.325 0 0 0 0 .651H3.94a6.531 6.531 0 0 0 1.496 2.314 6.581 6.581 0 0 0 4.64 1.923 6.585 6.585 0 0 0 3.585-1.06.325.325 0 0 0-.354-.544c-2.328 1.515-5.444 1.187-7.41-.78a5.925 5.925 0 0 1 0-8.37 5.925 5.925 0 0 1 8.37 0c1.964 1.964 2.293 5.078.783 7.404a.325.325 0 0 0 .545.354 6.59 6.59 0 0 0 1.023-4.226zM8.45 1.114c0-.25.205-.455.456-.455h2.341a.456.456 0 0 1 0 .91H8.906a.456.456 0 0 1-.456-.455zm.84 1.79V2.22h1.574v.683a6.626 6.626 0 0 0-1.575 0z"/>
        <path d="M14.497 13.512a.327.327 0 0 0-.326.325.326.326 0 0 0 .556.23.328.328 0 0 0 0-.46.328.328 0 0 0-.23-.095z"/>
        <path fill-rule="nonzero" d="M10.081 4.378a5.05 5.05 0 0 0-5.045 5.044 5.05 5.05 0 0 0 5.045 5.045 5.05 5.05 0 0 0 5.045-5.045 5.05 5.05 0 0 0-5.045-5.044zm0 9.439a4.4 4.4 0 0 1-4.394-4.395 4.4 4.4 0 0 1 4.394-4.394 4.4 4.4 0 0 1 4.395 4.394 4.4 4.4 0 0 1-4.395 4.395z"/>
        <path fill-rule="nonzero" d="M12.138 6.905l-1.61 1.611a1.004 1.004 0 0 0-.893 0l-.72-.72a.325.325 0 0 0-.46.46l.72.72a1.012 1.012 0 1 0 1.917.446c0-.16-.038-.311-.104-.446l1.563-1.563.047-.048a.325.325 0 0 0-.46-.46zm-2.057 2.878a.36.36 0 1 1 .001-.722.36.36 0 0 1 0 .722z"/>
        <path d="M13.558 9.101h-.3a.325.325 0 0 0 0 .65h.3a.325.325 0 0 0 0-.65zM6.906 9.093h-.302a.325.325 0 0 0 0 .65h.302a.325.325 0 0 0 0-.65zM10.085 6.572c.18 0 .326-.146.326-.325v-.302a.325.325 0 0 0-.65 0v.302c0 .18.145.325.324.325zM10.077 12.273a.325.325 0 0 0-.325.325v.301a.325.325 0 0 0 .65 0v-.3a.325.325 0 0 0-.325-.326zM.325 11.104a.328.328 0 0 0-.325.325.327.327 0 0 0 .325.325.328.328 0 0 0 .325-.325.328.328 0 0 0-.325-.325z"/>
    </g>
</svg>
