<svg xmlns="http://www.w3.org/2000/svg" width="14" height="12" viewBox="0 0 14 12">
    <g fill="#FFCA68" fill-rule="evenodd">
        <path d="M13.064 5.487L6.874.123a.413.413 0 0 0-.54 0L4.127 2.034V1.26a.826.826 0 0 0-1.65 0v2.204L.141 5.487a.414.414 0 0 0 .541.624l5.92-5.13 5.918 5.13a.413.413 0 0 0 .543-.624z"/>
        <path d="M7.125 3.099a.82.82 0 0 0-1.046 0L1.953 6.482a.824.824 0 0 0-.302.639v4.043c0 .455.37.825.825.825h2.476V7.863h3.301v4.126h2.476c.455 0 .826-.37.826-.825V7.12a.82.82 0 0 0-.303-.638L7.125 3.099z"/>
    </g>
</svg>
