<svg xmlns="http://www.w3.org/2000/svg" width="136" height="49" viewBox="0 0 136 49">
    <g fill="none" fill-rule="evenodd">
        <path fill="#FFF" d="M0 0h136v49H0z"/>
        <path fill="#292D78" d="M91.548 39.857h1.464V35.38h-1.464zM95.306 37.304h.653c.23 0 .387-.03.474-.092.087-.062.13-.17.13-.324 0-.157-.043-.267-.13-.33-.087-.06-.257-.092-.51-.092h-.617v.838zm-1.42 2.553V35.38h2.142c.672 0 1.15.101 1.437.301.286.2.43.53.43.988 0 .273-.06.5-.177.68-.117.18-.299.324-.543.428.248.053.43.157.543.312.114.155.174.382.183.682l.023.623.003.015c.007.178.05.271.128.28v.167h-1.449a4.275 4.275 0 0 1-.059-.281 1.188 1.188 0 0 1-.02-.187v-.447c0-.23-.045-.393-.137-.487-.09-.095-.249-.142-.474-.142h-.61v1.544h-1.42zM101.538 38.122h1.362c-.04.589-.248 1.046-.624 1.372-.374.324-.881.487-1.521.487-.718 0-1.282-.21-1.693-.63-.412-.42-.617-.996-.617-1.728 0-.73.203-1.304.61-1.726.409-.421.963-.632 1.667-.632.648 0 1.157.157 1.53.47.37.312.58.76.624 1.341H101.5c-.021-.23-.095-.401-.222-.518-.128-.117-.307-.175-.539-.175-.282 0-.492.103-.633.308-.141.207-.212.517-.212.932 0 .407.075.715.225.924.15.208.37.313.66.313.222 0 .399-.064.53-.192.13-.127.207-.309.229-.546M104.445 39.857V36.56h-1.288v-1.18h3.987v1.18h-1.261v3.296h-1.438M110.537 38.122h1.362c-.04.589-.248 1.046-.623 1.372-.375.324-.882.487-1.522.487-.717 0-1.282-.21-1.692-.63-.412-.42-.617-.996-.617-1.728 0-.73.203-1.304.61-1.726.408-.421.963-.632 1.666-.632.648 0 1.158.157 1.53.47.371.312.58.76.624 1.341H110.5c-.02-.23-.094-.401-.222-.518-.128-.117-.307-.175-.538-.175-.282 0-.493.103-.634.308-.141.207-.212.517-.212.932 0 .407.075.715.226.924.149.208.369.313.66.313.221 0 .398-.064.53-.192.13-.127.207-.309.228-.546M112.556 22.58c1.527 5.643-.998 8.09-5.716 7.14-.392 1.01-.792 2.014-1.425 2.886 7.53 1.893 10.573-3.643 7.141-10.027zm-14.863-3.098h3.21c.877.217 1.407.677 1.641 1.212.126.287.17.6.139.908-.032.312-.141.623-.32.902-.385.597-1.095 1.042-2.061 1.06-.565-.099-.85.503-.371.965l3.216 2.983h-5.454a.298.298 0 0 1-.297-.297v-7.436c0-.164.133-.297.297-.297zm5.378 0h2.236c.164 0 .297.133.297.297v7.436a.298.298 0 0 1-.297.297h-.522l-3.27-3.032a3.382 3.382 0 0 0 1.785-1.375c.273-.425.44-.905.49-1.394a2.907 2.907 0 0 0-.225-1.462 2.906 2.906 0 0 0-.494-.767zm-7.779-4.938c4.124-4.144 7.506-3.18 9.042 1.38 1.07-.165 2.141-.321 3.212-.209-2.125-7.467-8.441-7.335-12.254-1.171zm1.55 18.851c-5.651-1.5-6.507-4.91-3.326-8.52-.678-.845-1.348-1.694-1.787-2.678-5.404 5.574-2.132 10.978 5.113 11.198z"/>
        <path stroke="#1A1919" stroke-width=".216" d="M112.556 22.58c1.527 5.643-.998 8.09-5.716 7.14-.392 1.01-.792 2.014-1.425 2.886 7.53 1.893 10.573-3.643 7.141-10.027zm-14.863-3.098h3.21c.877.217 1.407.677 1.641 1.212.126.287.17.6.139.908-.032.312-.141.623-.32.902-.385.597-1.095 1.042-2.061 1.06-.565-.099-.85.503-.371.965l3.216 2.983h-5.454a.298.298 0 0 1-.297-.297v-7.436c0-.164.133-.297.297-.297zm5.378 0h2.236c.164 0 .297.133.297.297v7.436a.298.298 0 0 1-.297.297h-.522l-3.27-3.032a3.382 3.382 0 0 0 1.785-1.375c.273-.425.44-.905.49-1.394a2.907 2.907 0 0 0-.225-1.462 2.906 2.906 0 0 0-.494-.767zm-7.779-4.938c4.124-4.144 7.506-3.18 9.042 1.38 1.07-.165 2.141-.321 3.212-.209-2.125-7.467-8.441-7.335-12.254-1.171zm1.55 18.851c-5.651-1.5-6.507-4.91-3.326-8.52-.678-.845-1.348-1.694-1.787-2.678-5.404 5.574-2.132 10.978 5.113 11.198z"/>
        <path fill="#CBCCCB" d="M90.474 19.84c5.988-3.55 13.07-4.8 20.138-3.836.04 6.993-2.158 13.026-6.593 18.1-5.953-3.036-10.468-7.71-13.545-14.264zm1.279 2.347c4.528-3.939 10.341-6.095 16.484-6.372 1.117 5.924.188 11.381-2.787 16.372-5.52-1.653-10.073-4.919-13.697-10z"/>
        <text fill="#292D78" font-family="Averta-RegularItalic, Averta" font-size="12" font-style="italic">
            <tspan x="17.284" y="30">powered by</tspan>
        </text>
    </g>
</svg>
