<svg xmlns="http://www.w3.org/2000/svg" width="148" height="30" viewBox="0 0 148 30">
    <g fill="none" fill-rule="evenodd">
        <path fill="#3EB9E3" d="M29.959 14.98C29.959 6.701 23.257 0 14.979 0 6.702 0 0 6.702 0 14.98c0 3.11.958 6.003 2.573 8.396h24.813a14.974 14.974 0 0 0 2.573-8.397z"/>
        <path fill="#F1F1F2" d="M2.573 23.376c2.693 3.97 7.24 6.582 12.406 6.582s9.714-2.613 12.407-6.582H2.573z"/>
        <path fill="#BDBDBE" d="M29.839 13.065H11.09c-5.226 0-9.135 5.824-10.352 7.878 5.206-7.02 11.03-7.02 11.03-7.02h18.13c0-.28-.04-.56-.06-.858z"/>
        <path fill="#F0582F" d="M28.602 21.222h-18.51c-3.769 0-8.157 1.317-10.052 1.955.3 1.316 2.414 1.316 2.414 1.316h2.932l1.536-1.316h20.583a14.42 14.42 0 0 0 1.097-1.955z"/>
        <g fill="#FFFFFC">
            <path d="M.738 20.943c-.259.439-.398.698-.398.698-.32.638-.4 1.137-.3 1.516 1.895-.638 6.283-1.955 10.053-1.955h18.51a14.806 14.806 0 0 0 1.356-6.243c0-.359-.02-.698-.04-1.057h-18.15c0 .02-4.967-.837-11.03 7.04z"/>
            <path d="M29.919 13.922c-.02-.28-.04-.558-.08-.857H11.09c-5.226 0-9.135 5.824-10.352 7.878a22.839 22.839 0 0 1 2.334-2.673 27.279 27.279 0 0 0-2.334 2.673c-.259.439-.398.698-.398.698-.32.638-.4 1.137-.3 1.516 1.895-.638 6.283-1.955 10.053-1.955h18.51a14.806 14.806 0 0 0 1.356-6.243c0-.339-.02-.678-.04-1.037z"/>
        </g>
        <path fill="#FCFCFD" d="M11.09 13.065h2.753v-7.26H8.038v7.918c.958-.4 1.975-.658 3.052-.658z"/>
        <path fill="#DDDEE6" fill-rule="nonzero" d="M9.096 13.364v-.519h.538v.399c.06-.02.14-.02.2-.04v-.359h.598v.28c.06 0 .14-.02.2-.02v-.26h.598v.24h.2v-.24h.598v.24h.2v-.24h.538v.24h.2V6.581h-4.07v6.842c.06-.02.14-.04.2-.06zm3.151-6.582h.539v1.695h-.539V6.782zm0 1.895h.539v1.874h-.539V8.677zm0 2.074h.539v1.875h-.539V10.75zm-.798-3.97h.599v1.696h-.599V6.782zm0 1.896h.599v1.874h-.599V8.677zm0 2.074h.599v1.875h-.599V10.75zm-.818-3.97h.599v1.696h-.599V6.782zm0 1.896h.599v1.874h-.599V8.677zm0 2.074h.599v1.875h-.599V10.75zm-.797-3.97h.598v1.696h-.598V6.782zm0 1.896h.598v1.874h-.598V8.677zm0 2.074h.598v1.875h-.598V10.75zm-.738-3.97h.538v1.696h-.538V6.782zm0 1.896h.538v1.874h-.538V8.677zm0 2.074h.538v1.875h-.538V10.75z"/>
        <g fill="#6EB1E1">
            <path d="M10.631 8.677h1v1.875h-1zM10.631 10.75h1v1.876h-1zM10.631 6.782h1v1.695h-1z"/>
            <path d="M11.45 6.782h1v1.695h-1zM11.45 8.677h1v1.875h-1z"/>
            <path d="M12.247 6.782h1v1.695h-1zM9.095 8.677h1v1.875h-1zM12.247 8.677h1v1.875h-1zM11.45 10.75h1v1.876h-1z"/>
            <path d="M12.247 10.75h1v1.876h-1zM11.45 12.825v.24h.598v-.24h-.599zM10.631 12.825v.26h-.04c.16-.02.32-.02.5-.02h.159v-.24h-.619zM12.247 12.825v.24h.539v-.24h-.539zM9.833 6.782h1v1.695h-1zM9.833 10.75h1v1.876h-1z"/>
            <path d="M9.095 10.75h1v1.876h-1zM9.096 13.364c-.04 0-.06.02-.1.02a7.22 7.22 0 0 1 1.456-.28h-.02v-.279h-.598v.36c-.06.02-.14.02-.2.04v-.4h-.538v.539zM9.095 6.782h1v1.695h-1zM9.833 8.677h1v1.875h-1z"/>
        </g>
        <path fill="#4F5565" d="M23.895 15.219h-2.752a.894.894 0 0 0-.898.897v7.06h4.548v-7.06a.92.92 0 0 0-.898-.897z" opacity=".2"/>
        <g fill="#646B79">
            <path d="M11.768 16.336H8.996c-3.39 0-6.203 4.328-6.203 4.328 1.755-1.157 6.023-1.077 6.023-1.077h2.932c.34 0 .619-.28.619-.619v-1.994a.598.598 0 0 0-.599-.638zM18.41 16.336h-3.93c-.338 0-.637.279-.637.638v2.034c0 .34.279.638.638.638h3.95c.338 0 .637-.279.637-.638v-2.034a.66.66 0 0 0-.658-.638zM26.608 16.336c-.34 0-.639.279-.639.638v2.034c0 .34.28.638.639.638h2.613c.339-1.057.578-2.154.678-3.29h-3.291v-.02zM23.177 16.336h-1.336c-.34 0-.639.279-.639.638v2.034c0 .34.28.638.639.638h1.336c.34 0 .638-.279.638-.638v-2.034a.63.63 0 0 0-.638-.638z"/>
        </g>
        <path fill="#4F5565" d="M27.505 23.177H6.922l-1.536 1.316h21.162c.339-.419.658-.857.957-1.316z"/>
        <g fill="#393D47" transform="translate(7.588 23.588)">
            <circle cx="1.308" cy="1.304" r="1.296"/>
            <circle cx="9.984" cy="1.304" r="1.296"/>
        </g>
        <g stroke="#4485C5" stroke-width="4">
            <path d="M7.26 27.36h7.061M16.077 27.36h7.04"/>
        </g>
        <path fill="#F1F3F7" d="M13.843 3.431h9.654v9.674h-9.654z"/>
        <path fill="#A8D490" d="M24.154 8.477c-.219 0-.438.02-.658.06v4.528h4.528c.04-.22.06-.44.06-.659a3.924 3.924 0 0 0-3.93-3.929z"/>
        <g fill="#3EB9E3">
            <path d="M14.74 4.328h1.975v1H14.74zM17.692 4.328h1.975v1h-1.975zM20.644 4.328h1.975v1h-1.975zM14.74 6.064h1.975v1H14.74zM17.692 6.064h1.975v1h-1.975zM20.644 6.064h1.975v1h-1.975zM14.74 7.8h1.975v1H14.74zM17.692 7.8h1.975v1h-1.975zM20.644 7.8h1.975v1h-1.975zM14.74 9.534h1.975v1H14.74zM17.692 9.534h1.975v1h-1.975zM20.644 9.534h1.975v1h-1.975zM14.74 11.27h1.975v1H14.74zM17.692 11.27h1.975v1h-1.975zM20.644 11.27h1.975v1h-1.975z"/>
        </g>
        <text fill="#FFF" font-family="Averta-Regular, Averta" font-size="24">
            <tspan x="35.168" y="24">RailBuddy</tspan>
        </text>
    </g>
</svg>
