<svg xmlns="http://www.w3.org/2000/svg" width="14" height="14" viewBox="0 0 14 14">
    <path fill="#000" fill-rule="nonzero" d="M13.048 3.483A6.963 6.963 0 0 0 10.503.938 6.84 6.84 0 0 0 6.993 0a6.84 6.84 0 0 0-3.51.938A6.961 6.961 0 0 0 .938 3.483 6.84 6.84 0 0 0 0 6.993c0 1.268.313 2.438.938 3.51a6.965 6.965 0 0 0 2.545 2.544 6.84 6.84 0 0 0 3.51.938 6.84 6.84 0 0 0 3.51-.938 6.961 6.961 0 0 0 2.544-2.544 6.842 6.842 0 0 0 .938-3.51 6.842 6.842 0 0 0-.937-3.51zm-2.559 4.01l-4.953 2.914a.558.558 0 0 1-.292.082.647.647 0 0 1-.29-.073.557.557 0 0 1-.292-.51V4.08c0-.225.097-.394.291-.51.2-.11.395-.106.583.01l4.953 2.913c.194.109.291.276.291.5a.538.538 0 0 1-.291.501z"/>
</svg>
