<svg xmlns="http://www.w3.org/2000/svg" width="17" height="14" viewBox="0 0 17 14">
    <g fill="#000" fill-rule="evenodd">
        <path d="M7.431 2.687l-.936-.947a.312.312 0 1 0-.442.437l.936.947a.312.312 0 0 0 .442-.437zM15.374 1.79a.312.312 0 0 0-.476-.003l-.947.936a.312.312 0 1 0 .437.442l.947-.937a.312.312 0 0 0 .039-.439zM9.73 1.594a.306.306 0 0 0-.007-.027L9.38.28a.31.31 0 1 0-.6.156l.343 1.288a.31.31 0 0 0 .607-.129z"/>
        <path fill-rule="nonzero" d="M13.989 8.226a4.331 4.331 0 0 0-.182-.172l.051-.092c.064-.117.121-.238.172-.361a3.554 3.554 0 0 0-1.978-4.62l-.01-.004a3.555 3.555 0 0 0-4.405 1.541 4.036 4.036 0 0 0-5.122 3.9v.16a2.706 2.706 0 0 0 .17 5.405H11.6a3.372 3.372 0 0 0 2.389-5.757zm-4.343-4.67a2.927 2.927 0 0 1 2.163 0 2.939 2.939 0 0 1 1.642 3.813 2.971 2.971 0 0 1-.147.304V7.7a3.375 3.375 0 0 0-2.833-.26 4.031 4.031 0 0 0-1.02-1.831 1.445 1.445 0 0 1 1.798-.661.31.31 0 0 0 .227-.576 2.055 2.055 0 0 0-2.507.819 4.045 4.045 0 0 0-.752-.447c.335-.54.836-.958 1.429-1.188zm2.604 9.729c-.212.05-.43.075-.647.075H2.698a2.084 2.084 0 0 1-1.473-3.557l-.003.002c.39-.391.92-.61 1.472-.61H2.837a.31.31 0 0 0 .325-.368 3.968 3.968 0 0 1-.017-.194v-.217a3.415 3.415 0 0 1 6.785-.502.31.31 0 0 0 .445.233 2.752 2.752 0 1 1 1.875 5.138z"/>
        <path d="M17 4.726a.31.31 0 0 0-.36-.211l-1.288.342a.31.31 0 0 0 .155.6l1.288-.343A.31.31 0 0 0 17 4.726zM16.782 7.756l-1.285-.35a.31.31 0 1 0-.17.597l1.283.351a.31.31 0 1 0 .172-.598zM12.405.071a.31.31 0 0 0-.384.214l-.351 1.284a.31.31 0 0 0 .219.389.31.31 0 0 0 .385-.21l.002-.008.343-1.284a.31.31 0 0 0-.214-.385z"/>
    </g>
</svg>
