<svg xmlns="http://www.w3.org/2000/svg" width="23" height="14" viewBox="0 0 23 14">
    <g fill="#000" fill-rule="nonzero" stroke="#FFF" stroke-width=".1">
        <path d="M13.11 1.032H1.517v1.007H13.11c1.095 0 2.421.494 3.702 1.2a1.512 1.512 0 0 0-1.142 1.464v1.286c0 .833.677 1.511 1.51 1.511h3.805c.226 0 .445-.05.644-.144.081.162.126.305.126.423v.167a2.18 2.18 0 0 1-2.177 2.177H1.518v1.008h1.465c.024.3.122.581.276.823H1.517v1.007h19.317v-1.007h-2.96c.154-.242.251-.522.276-.823h1.676v-.013a3.186 3.186 0 0 0 2.936-3.172V7.78c0-2.149-6.06-6.747-9.652-6.747zm7.875 5.46H17.18a.504.504 0 0 1-.504-.503V4.702c0-.277.226-.503.504-.503h1.173c1.084.754 2.035 1.586 2.655 2.291l-.024.003zm-16.19 5.304a.814.814 0 0 1-.798-.666h1.597a.813.813 0 0 1-.798.666zm2.634 0a.814.814 0 0 1-.798-.666h1.596a.813.813 0 0 1-.798.666zm1.537.158c.153-.242.251-.522.276-.824h2.65c.024.302.122.582.275.824H8.966zm4.738-.158a.814.814 0 0 1-.798-.666h1.596a.813.813 0 0 1-.798.666zm2.633 0a.814.814 0 0 1-.798-.666h1.596a.813.813 0 0 1-.798.666z"/>
        <path d="M12.696 7.109c.834 0 1.511-.678 1.511-1.511v-.896c0-.833-.677-1.51-1.51-1.51H2.523c-.833 0-1.51.677-1.51 1.51v.896c0 .833.677 1.51 1.51 1.51h10.172zm-1.518-2.91h1.518c.278 0 .504.226.504.503v.896a.504.504 0 0 1-.504.503h-1.518V4.2zm-3.064 0h2.057V6.1H8.114V4.2zm-3.064 0h2.057V6.1H5.05V4.2zM2.02 5.598v-.896c0-.277.227-.503.504-.503h1.519V6.1H2.524a.504.504 0 0 1-.503-.503z"/>
    </g>
</svg>
