<svg width="510" height="52" viewBox="0 0 510 52" fill="none" xmlns="http://www.w3.org/2000/svg">
<path d="M0.538 36.665H2.795C3.07967 38.495 3.60833 40.142 4.381 41.606C5.19433 43.07 6.19067 44.3103 7.37 45.327C8.59 46.3437 9.97267 47.1367 11.518 47.706C13.104 48.2347 14.812 48.499 16.642 48.499C19.6513 48.499 22.0303 47.7873 23.779 46.364C25.5277 44.9407 26.402 43.009 26.402 40.569C26.402 39.5523 26.219 38.617 25.853 37.763C25.5277 36.909 24.9583 36.0957 24.145 35.323C23.3317 34.5097 22.2337 33.7167 20.851 32.944C19.509 32.1713 17.801 31.3377 15.727 30.443C13.2057 29.345 11.091 28.2877 9.383 27.271C7.675 26.2543 6.31267 25.197 5.296 24.099C4.27933 23.001 3.54733 21.842 3.1 20.622C2.69333 19.3613 2.49 17.938 2.49 16.352C2.49 14.4813 2.81533 12.753 3.466 11.167C4.15733 9.581 5.113 8.21866 6.333 7.08C7.553 5.90067 8.99667 5.006 10.664 4.396C12.3313 3.74533 14.1613 3.42 16.154 3.42C17.9433 3.42 19.6107 3.70466 21.156 4.274C22.7013 4.84333 24.267 5.75833 25.853 7.019L27.439 4.274H28.842L29.513 16.413H27.256C26.28 13.0783 24.8567 10.5977 22.986 8.971C21.156 7.34433 18.9397 6.531 16.337 6.531C13.8563 6.531 11.884 7.141 10.42 8.361C8.956 9.581 8.224 11.228 8.224 13.302C8.224 14.278 8.38667 15.1727 8.712 15.986C9.03733 16.7587 9.566 17.511 10.298 18.243C11.03 18.9343 11.9857 19.646 13.165 20.378C14.3443 21.0693 15.8083 21.8013 17.557 22.574C20.5663 23.916 23.0673 25.1767 25.06 26.356C27.0527 27.4947 28.6387 28.6537 29.818 29.833C30.9973 30.9717 31.831 32.1917 32.319 33.493C32.807 34.7537 33.051 36.177 33.051 37.763C33.051 39.7963 32.6443 41.667 31.831 43.375C31.0177 45.083 29.879 46.547 28.415 47.767C26.951 48.987 25.2023 49.9427 23.169 50.634C21.1357 51.2847 18.899 51.61 16.459 51.61C14.141 51.61 12.0467 51.2847 10.176 50.634C8.346 49.9833 6.47533 48.8853 4.564 47.34L2.856 50.329H1.453L0.538 36.665ZM49.8584 41.301C49.8584 42.9683 49.8991 44.29 49.9804 45.266C50.0617 46.242 50.2651 46.9943 50.5904 47.523C50.9564 48.011 51.4647 48.3363 52.1154 48.499C52.7661 48.6617 53.6811 48.7837 54.8604 48.865V51H38.6344V48.865C39.8137 48.8243 40.7491 48.7227 41.4404 48.56C42.1317 48.3567 42.6604 48.011 43.0264 47.523C43.3924 47.035 43.6161 46.3437 43.6974 45.449C43.8194 44.5137 43.8804 43.2733 43.8804 41.728V34.591C43.8804 31.8257 43.8397 29.6703 43.7584 28.125C43.7177 26.5797 43.5144 25.441 43.1484 24.709C42.8231 23.977 42.2944 23.55 41.5624 23.428C40.8304 23.2653 39.8137 23.184 38.5124 23.184V21.049L49.1874 18.731L50.0414 26.295H50.2854C50.8141 25.075 51.4647 23.9567 52.2374 22.94C53.0507 21.9233 53.9251 21.0693 54.8604 20.378C55.7957 19.646 56.7717 19.0767 57.7884 18.67C58.8051 18.2633 59.8421 18.06 60.8994 18.06C62.2007 18.06 63.2174 18.3853 63.9494 19.036C64.7221 19.646 65.1084 20.4797 65.1084 21.537C65.1084 22.513 64.8034 23.2857 64.1934 23.855C63.5834 24.3837 62.7091 24.648 61.5704 24.648C60.9197 24.648 60.3707 24.5667 59.9234 24.404C59.4761 24.2413 59.0694 24.0787 58.7034 23.916C58.3781 23.7127 58.0527 23.5297 57.7274 23.367C57.4427 23.2043 57.1174 23.123 56.7514 23.123C55.6534 23.123 54.5554 23.8347 53.4574 25.258C52.3594 26.6407 51.5054 28.4097 50.8954 30.565C50.5701 31.7443 50.3057 33.0863 50.1024 34.591C49.9397 36.055 49.8584 37.6003 49.8584 39.227V41.301ZM79.2947 41.301C79.2947 42.887 79.3557 44.168 79.4777 45.144C79.6404 46.0793 79.9251 46.8317 80.3317 47.401C80.7384 47.9297 81.3077 48.2957 82.0397 48.499C82.7717 48.7023 83.7477 48.8243 84.9677 48.865V51H67.4607V48.865C68.6807 48.8243 69.6771 48.7023 70.4497 48.499C71.2224 48.255 71.8121 47.889 72.2187 47.401C72.6661 46.8723 72.9507 46.1607 73.0727 45.266C73.2354 44.3307 73.3167 43.1513 73.3167 41.728V33.92C73.3167 31.5613 73.2761 29.6297 73.1947 28.125C73.1541 26.5797 73.0524 25.5223 72.8897 24.953C72.6864 24.0177 72.2187 23.3873 71.4867 23.062C70.7547 22.696 69.3721 22.513 67.3387 22.513V20.378L79.2947 18.06V41.301ZM72.2797 5.677C72.2797 4.61966 72.6457 3.725 73.3777 2.993C74.1097 2.261 75.0044 1.895 76.0617 1.895C77.1191 1.895 78.0137 2.261 78.7457 2.993C79.4777 3.725 79.8437 4.61966 79.8437 5.677C79.8437 6.73433 79.4777 7.629 78.7457 8.361C78.0137 9.093 77.1191 9.459 76.0617 9.459C75.0044 9.459 74.1097 9.093 73.3777 8.361C72.6457 7.629 72.2797 6.73433 72.2797 5.677ZM99.3528 41.423C99.3528 43.0903 99.3934 44.412 99.4748 45.388C99.5561 46.3233 99.7594 47.0553 100.085 47.584C100.451 48.072 100.959 48.3973 101.61 48.56C102.301 48.7227 103.236 48.8447 104.416 48.926V51H88.4338V48.926C89.5724 48.8447 90.4671 48.7227 91.1178 48.56C91.8091 48.3973 92.3378 48.072 92.7038 47.584C93.0698 47.096 93.2934 46.4047 93.3748 45.51C93.4968 44.6153 93.5578 43.3953 93.5578 41.85V33.737C93.5578 28.8977 93.4358 25.9493 93.1918 24.892C93.0698 24.3633 92.9071 23.9363 92.7038 23.611C92.5411 23.245 92.2768 22.9807 91.9108 22.818C91.5448 22.6147 91.0771 22.4927 90.5078 22.452C89.9384 22.3707 89.2064 22.33 88.3118 22.33V20.378L98.0718 18.06L98.8038 24.099H99.0478C100.593 22.1877 102.403 20.7033 104.477 19.646C106.551 18.5887 108.808 18.06 111.248 18.06C113.118 18.06 114.826 18.365 116.372 18.975C117.917 19.585 119.096 20.4187 119.91 21.476C120.601 22.4113 121.089 23.6313 121.374 25.136C121.658 26.6 121.801 28.6333 121.801 31.236V41.423C121.801 43.0903 121.841 44.412 121.923 45.388C122.045 46.3233 122.268 47.0553 122.594 47.584C122.919 48.072 123.407 48.3973 124.058 48.56C124.749 48.7227 125.644 48.8447 126.742 48.926V51H110.943V48.926C112.081 48.8853 112.976 48.7837 113.627 48.621C114.318 48.4177 114.826 48.072 115.152 47.584C115.518 47.096 115.741 46.4047 115.823 45.51C115.945 44.5747 116.006 43.3547 116.006 41.85V33.798C116.006 31.48 115.884 29.528 115.64 27.942C115.396 26.356 114.989 25.075 114.42 24.099C113.891 23.123 113.179 22.4317 112.285 22.025C111.39 21.5777 110.312 21.354 109.052 21.354C107.222 21.354 105.534 21.842 103.989 22.818C102.484 23.7533 101.305 25.0547 100.451 26.722C100.247 27.1287 100.064 27.515 99.9018 27.881C99.7798 28.247 99.6781 28.674 99.5968 29.162C99.5154 29.65 99.4544 30.2193 99.4138 30.87C99.3731 31.48 99.3528 32.273 99.3528 33.249V41.423ZM142.141 41.301C142.141 42.887 142.202 44.168 142.324 45.144C142.487 46.0793 142.772 46.8317 143.178 47.401C143.585 47.9297 144.154 48.2957 144.886 48.499C145.618 48.7023 146.594 48.8243 147.814 48.865V51H130.307V48.865C131.527 48.8243 132.524 48.7023 133.296 48.499C134.069 48.255 134.659 47.889 135.065 47.401C135.513 46.8723 135.797 46.1607 135.919 45.266C136.082 44.3307 136.163 43.1513 136.163 41.728V33.92C136.163 31.5613 136.123 29.6297 136.041 28.125C136.001 26.5797 135.899 25.5223 135.736 24.953C135.533 24.0177 135.065 23.3873 134.333 23.062C133.601 22.696 132.219 22.513 130.185 22.513V20.378L142.141 18.06V41.301ZM135.126 5.677C135.126 4.61966 135.492 3.725 136.224 2.993C136.956 2.261 137.851 1.895 138.908 1.895C139.966 1.895 140.86 2.261 141.592 2.993C142.324 3.725 142.69 4.61966 142.69 5.677C142.69 6.73433 142.324 7.629 141.592 8.361C140.86 9.093 139.966 9.459 138.908 9.459C137.851 9.459 136.956 9.093 136.224 8.361C135.492 7.629 135.126 6.73433 135.126 5.677ZM155.07 26.234C154.582 25.014 154.134 24.0583 153.728 23.367C153.362 22.635 152.955 22.086 152.508 21.72C152.06 21.354 151.552 21.1303 150.983 21.049C150.454 20.927 149.803 20.8457 149.031 20.805V18.67H165.196V20.805C164.382 20.8457 163.711 20.8863 163.183 20.927C162.654 20.9677 162.227 21.0693 161.902 21.232C161.617 21.354 161.414 21.5573 161.292 21.842C161.17 22.086 161.109 22.452 161.109 22.94C161.109 23.6313 161.19 24.282 161.353 24.892C161.556 25.502 161.759 26.112 161.963 26.722L168.429 44.412H168.673L174.224 31.297C175.078 29.2637 175.688 27.637 176.054 26.417C176.42 25.197 176.603 24.1193 176.603 23.184C176.603 22.2487 176.359 21.6183 175.871 21.293C175.383 20.9677 174.325 20.805 172.699 20.805V18.67H184.838V20.805C184.187 20.805 183.597 20.9677 183.069 21.293C182.54 21.6183 182.072 22.025 181.666 22.513C181.34 22.9603 180.995 23.5703 180.629 24.343C180.303 25.075 179.958 25.8477 179.592 26.661C179.266 27.4743 178.961 28.2877 178.677 29.101C178.392 29.8737 178.128 30.504 177.884 30.992L168.917 51.671H165.379L155.07 26.234ZM206.65 32.944C204.332 33.8387 202.36 34.713 200.733 35.567C199.147 36.421 197.866 37.275 196.89 38.129C195.914 38.983 195.203 39.837 194.755 40.691C194.349 41.545 194.145 42.4193 194.145 43.314C194.145 44.656 194.593 45.754 195.487 46.608C196.382 47.462 197.561 47.889 199.025 47.889C200.083 47.889 201.059 47.6247 201.953 47.096C202.889 46.5673 203.702 45.8557 204.393 44.961C205.085 44.0257 205.634 42.948 206.04 41.728C206.447 40.4673 206.65 39.1457 206.65 37.763V32.944ZM206.65 30.321V27.82C206.65 22.8587 204.536 20.378 200.306 20.378C199.615 20.378 199.025 20.439 198.537 20.561C198.049 20.683 197.643 20.8863 197.317 21.171C196.992 21.4557 196.687 21.8623 196.402 22.391C196.158 22.9197 195.914 23.5703 195.67 24.343C195.223 25.5223 194.776 26.3153 194.328 26.722C193.922 27.088 193.312 27.271 192.498 27.271C190.465 27.271 189.448 26.2543 189.448 24.221C189.448 22.269 190.485 20.7643 192.559 19.707C194.633 18.609 197.582 18.06 201.404 18.06C205.471 18.06 208.358 18.792 210.066 20.256C211.774 21.6793 212.628 24.1193 212.628 27.576V41.24C212.628 45.876 213.543 48.194 215.373 48.194C215.943 48.194 216.492 48.133 217.02 48.011C217.549 47.8483 217.996 47.462 218.362 46.852L219.216 48.316C218.728 49.2513 217.834 50.0443 216.532 50.695C215.231 51.305 213.869 51.61 212.445 51.61C210.656 51.61 209.314 51.0407 208.419 49.902C207.565 48.7633 207.138 47.157 207.138 45.083H206.833C205.776 47.0757 204.312 48.6617 202.441 49.841C200.571 50.9797 198.497 51.549 196.219 51.549C193.657 51.549 191.644 50.8983 190.18 49.597C188.716 48.2957 187.984 46.547 187.984 44.351C187.984 43.375 188.147 42.4397 188.472 41.545C188.838 40.6503 189.408 39.7963 190.18 38.983C190.953 38.1697 191.97 37.3767 193.23 36.604C194.491 35.7907 196.036 34.9773 197.866 34.164L206.65 30.321ZM224.384 51H223.042V40.508H224.567C226.153 46.242 229.04 49.109 233.229 49.109C234.855 49.109 236.136 48.7227 237.072 47.95C238.048 47.1367 238.536 45.9167 238.536 44.29C238.536 43.68 238.434 43.1717 238.231 42.765C238.068 42.3177 237.722 41.8703 237.194 41.423C236.706 40.935 235.994 40.386 235.059 39.776C234.164 39.166 232.964 38.3933 231.46 37.458C230.077 36.604 228.877 35.811 227.861 35.079C226.844 34.347 225.99 33.615 225.299 32.883C224.607 32.1103 224.079 31.297 223.713 30.443C223.387 29.589 223.225 28.5927 223.225 27.454C223.225 26.0713 223.448 24.8107 223.896 23.672C224.384 22.4927 225.034 21.4963 225.848 20.683C226.661 19.8697 227.617 19.2393 228.715 18.792C229.813 18.304 231.012 18.06 232.314 18.06C233.412 18.06 234.55 18.243 235.73 18.609C236.909 18.9343 237.946 19.3817 238.841 19.951L240.061 18.67H241.22V27.454H239.634C238.739 24.9733 237.763 23.2043 236.706 22.147C235.648 21.0897 234.347 20.561 232.802 20.561C231.419 20.561 230.301 20.927 229.447 21.659C228.633 22.391 228.227 23.4077 228.227 24.709C228.227 25.4003 228.328 26.0103 228.532 26.539C228.776 27.027 229.142 27.515 229.63 28.003C230.118 28.491 230.728 28.9993 231.46 29.528C232.232 30.016 233.147 30.5853 234.205 31.236C235.953 32.334 237.438 33.31 238.658 34.164C239.918 35.018 240.935 35.872 241.708 36.726C242.48 37.5393 243.05 38.3933 243.416 39.288C243.782 40.1827 243.965 41.1993 243.965 42.338C243.965 45.2253 243.029 47.5027 241.159 49.17C239.288 50.7967 236.828 51.61 233.778 51.61C230.606 51.61 227.881 50.695 225.604 48.865L224.384 51ZM266.67 51V48.682C268.256 48.6413 269.516 48.5193 270.452 48.316C271.428 48.1127 272.16 47.767 272.648 47.279C273.176 46.791 273.522 46.0997 273.685 45.205C273.888 44.3103 273.99 43.1513 273.99 41.728V13.302C273.99 11.8787 273.908 10.74 273.746 9.886C273.624 8.99133 273.339 8.3 272.892 7.812C272.485 7.28333 271.875 6.93767 271.062 6.775C270.248 6.57167 269.191 6.42933 267.89 6.348V4.03H286.129C291.619 4.03 295.889 5.006 298.939 6.958C301.989 8.91 303.514 11.655 303.514 15.193C303.514 17.877 302.66 20.073 300.952 21.781C299.284 23.489 296.621 24.892 292.961 25.99V26.234C294.221 26.356 295.319 26.4983 296.255 26.661C297.19 26.8237 298.024 27.027 298.756 27.271C299.488 27.4743 300.159 27.7387 300.769 28.064C301.419 28.3893 302.05 28.7553 302.66 29.162C306.279 31.724 308.089 34.9367 308.089 38.8C308.089 40.9553 307.479 42.9683 306.259 44.839C305.079 46.669 303.412 48.1127 301.257 49.17C300.565 49.536 299.854 49.841 299.122 50.085C298.39 50.2883 297.536 50.4713 296.56 50.634C295.584 50.756 294.445 50.8577 293.144 50.939C291.883 50.9797 290.378 51 288.63 51H266.67ZM288.813 48.377C296.173 48.377 299.854 45.2253 299.854 38.922C299.854 34.3267 297.963 31.114 294.181 29.284C293.53 28.9993 292.9 28.7553 292.29 28.552C291.68 28.3487 290.968 28.2063 290.155 28.125C289.341 28.003 288.365 27.9217 287.227 27.881C286.129 27.8403 284.766 27.82 283.14 27.82H280.395V41.423C280.395 43.9037 281.045 45.693 282.347 46.791C283.648 47.8483 285.803 48.377 288.813 48.377ZM283.811 24.77C285.071 24.77 286.129 24.7497 286.983 24.709C287.837 24.6683 288.569 24.6073 289.179 24.526C289.789 24.404 290.317 24.2617 290.765 24.099C291.253 23.8957 291.741 23.6313 292.229 23.306C293.53 22.4927 294.445 21.5167 294.974 20.378C295.543 19.2393 295.828 17.755 295.828 15.925C295.828 12.7123 295.035 10.4147 293.449 9.032C291.903 7.60866 289.463 6.897 286.129 6.897H281.432C280.74 6.897 280.395 7.24266 280.395 7.934V24.77H283.811ZM339.059 28.43C339.059 26.7627 339.019 25.4613 338.937 24.526C338.856 23.55 338.632 22.818 338.266 22.33C337.941 21.8013 337.433 21.4557 336.741 21.293C336.091 21.0897 335.176 20.927 333.996 20.805V18.67H345.037V37.397C345.037 39.715 345.058 41.606 345.098 43.07C345.18 44.534 345.281 45.632 345.403 46.364C345.485 46.8927 345.607 47.3197 345.769 47.645C345.973 47.9297 346.257 48.1737 346.623 48.377C346.989 48.5397 347.457 48.6617 348.026 48.743C348.636 48.7837 349.409 48.804 350.344 48.804V50.939L340.279 51.671L339.608 44.351H339.364C337.819 46.8723 336.03 48.7227 333.996 49.902C332.004 51.0407 329.909 51.61 327.713 51.61C326.005 51.61 324.338 51.2847 322.711 50.634C321.125 49.9833 319.926 49.109 319.112 48.011C318.421 47.1163 317.913 45.876 317.587 44.29C317.303 42.704 317.16 40.6503 317.16 38.129V28.43C317.16 26.7627 317.12 25.4613 317.038 24.526C316.957 23.55 316.733 22.818 316.367 22.33C316.042 21.8013 315.534 21.4557 314.842 21.293C314.192 21.0897 313.277 20.927 312.097 20.805V18.67H323.138V35.323C323.138 39.7557 323.647 42.9683 324.663 44.961C325.721 46.9537 327.388 47.95 329.665 47.95C333.244 47.95 336.03 45.6117 338.022 40.935C338.226 40.447 338.388 39.9997 338.51 39.593C338.632 39.1863 338.734 38.739 338.815 38.251C338.897 37.763 338.958 37.214 338.998 36.604C339.039 35.994 339.059 35.262 339.059 34.408V28.43ZM381.206 45.876H380.962C379.498 47.95 377.932 49.4343 376.265 50.329C374.638 51.183 372.706 51.61 370.47 51.61C368.152 51.61 366.017 51.2033 364.065 50.39C362.153 49.536 360.486 48.377 359.063 46.913C357.68 45.4083 356.582 43.619 355.769 41.545C354.996 39.471 354.61 37.214 354.61 34.774C354.61 32.3747 354.996 30.1583 355.769 28.125C356.582 26.051 357.68 24.282 359.063 22.818C360.486 21.3133 362.174 20.1543 364.126 19.341C366.078 18.487 368.192 18.06 370.47 18.06C372.422 18.06 374.15 18.3853 375.655 19.036C377.2 19.6867 378.684 20.7237 380.108 22.147V15.925C380.108 13.607 380.067 11.6753 379.986 10.13C379.945 8.58467 379.864 7.52733 379.742 6.958C379.538 6.06333 378.969 5.433 378.034 5.067C377.098 4.701 375.573 4.518 373.459 4.518V2.688L385.964 0.369997V35.567C385.964 38.373 385.984 40.691 386.025 42.521C386.065 44.3103 386.187 45.5913 386.391 46.364C386.513 46.852 386.655 47.2587 386.818 47.584C387.021 47.9093 387.285 48.1737 387.611 48.377C387.977 48.5397 388.444 48.6617 389.014 48.743C389.624 48.8243 390.396 48.865 391.332 48.865V50.939L381.206 51.61V45.876ZM379.986 32.395C379.986 30.2803 379.864 28.674 379.62 27.576C379.416 26.478 378.989 25.5223 378.339 24.709C377.403 23.489 376.204 22.574 374.74 21.964C373.316 21.3133 371.893 20.988 370.47 20.988C367.542 20.988 365.305 22.208 363.76 24.648C362.255 27.0473 361.503 30.321 361.503 34.469C361.503 36.6243 361.686 38.5763 362.052 40.325C362.458 42.0737 363.028 43.5783 363.76 44.839C364.532 46.059 365.468 47.0147 366.566 47.706C367.704 48.3567 369.006 48.682 370.47 48.682C371.202 48.682 371.934 48.6007 372.666 48.438C373.438 48.2753 374.17 48.0313 374.862 47.706C375.594 47.34 376.265 46.9333 376.875 46.486C377.485 45.998 377.993 45.449 378.4 44.839C378.969 43.9443 379.376 42.8667 379.62 41.606C379.864 40.3453 379.986 38.617 379.986 36.421V32.395ZM422.369 45.876H422.125C420.661 47.95 419.095 49.4343 417.428 50.329C415.801 51.183 413.869 51.61 411.633 51.61C409.315 51.61 407.18 51.2033 405.228 50.39C403.316 49.536 401.649 48.377 400.226 46.913C398.843 45.4083 397.745 43.619 396.932 41.545C396.159 39.471 395.773 37.214 395.773 34.774C395.773 32.3747 396.159 30.1583 396.932 28.125C397.745 26.051 398.843 24.282 400.226 22.818C401.649 21.3133 403.337 20.1543 405.289 19.341C407.241 18.487 409.355 18.06 411.633 18.06C413.585 18.06 415.313 18.3853 416.818 19.036C418.363 19.6867 419.847 20.7237 421.271 22.147V15.925C421.271 13.607 421.23 11.6753 421.149 10.13C421.108 8.58467 421.027 7.52733 420.905 6.958C420.701 6.06333 420.132 5.433 419.197 5.067C418.261 4.701 416.736 4.518 414.622 4.518V2.688L427.127 0.369997V35.567C427.127 38.373 427.147 40.691 427.188 42.521C427.228 44.3103 427.35 45.5913 427.554 46.364C427.676 46.852 427.818 47.2587 427.981 47.584C428.184 47.9093 428.448 48.1737 428.774 48.377C429.14 48.5397 429.607 48.6617 430.177 48.743C430.787 48.8243 431.559 48.865 432.495 48.865V50.939L422.369 51.61V45.876ZM421.149 32.395C421.149 30.2803 421.027 28.674 420.783 27.576C420.579 26.478 420.152 25.5223 419.502 24.709C418.566 23.489 417.367 22.574 415.903 21.964C414.479 21.3133 413.056 20.988 411.633 20.988C408.705 20.988 406.468 22.208 404.923 24.648C403.418 27.0473 402.666 30.321 402.666 34.469C402.666 36.6243 402.849 38.5763 403.215 40.325C403.621 42.0737 404.191 43.5783 404.923 44.839C405.695 46.059 406.631 47.0147 407.729 47.706C408.867 48.3567 410.169 48.682 411.633 48.682C412.365 48.682 413.097 48.6007 413.829 48.438C414.601 48.2753 415.333 48.0313 416.025 47.706C416.757 47.34 417.428 46.9333 418.038 46.486C418.648 45.998 419.156 45.449 419.563 44.839C420.132 43.9443 420.539 42.8667 420.783 41.606C421.027 40.3453 421.149 38.617 421.149 36.421V32.395ZM446.696 41.301C446.696 42.9683 446.736 44.29 446.818 45.266C446.899 46.242 447.102 46.9943 447.428 47.523C447.794 48.011 448.302 48.3363 448.953 48.499C449.603 48.6617 450.518 48.7837 451.698 48.865V51H435.472V48.865C436.651 48.7837 437.586 48.6617 438.278 48.499C438.969 48.3363 439.498 48.011 439.864 47.523C440.23 47.035 440.453 46.3437 440.535 45.449C440.657 44.5137 440.718 43.2733 440.718 41.728V16.169C440.718 13.7697 440.677 11.8583 440.596 10.435C440.555 9.01166 440.453 7.934 440.291 7.202C440.209 6.714 440.067 6.32766 439.864 6.043C439.701 5.71766 439.437 5.47366 439.071 5.311C438.705 5.10767 438.217 4.96533 437.607 4.884C436.997 4.80267 436.244 4.762 435.35 4.762V2.688L446.574 0.369997V23.611H446.818C447.428 22.7977 448.18 22.0657 449.075 21.415C450.01 20.7237 451.006 20.134 452.064 19.646C453.121 19.158 454.219 18.7717 455.358 18.487C456.537 18.2023 457.676 18.06 458.774 18.06C460.644 18.06 462.352 18.3853 463.898 19.036C465.484 19.6867 466.704 20.561 467.558 21.659C468.249 22.5943 468.757 23.8347 469.083 25.38C469.408 26.8847 469.571 28.9383 469.571 31.541V41.301C469.571 42.9683 469.611 44.29 469.693 45.266C469.774 46.2013 469.977 46.9333 470.303 47.462C470.669 47.9907 471.177 48.3363 471.828 48.499C472.478 48.6617 473.393 48.7837 474.573 48.865V51H458.408V48.865C459.546 48.8243 460.461 48.7227 461.153 48.56C461.844 48.3567 462.352 48.011 462.678 47.523C463.044 47.035 463.267 46.3437 463.349 45.449C463.471 44.5137 463.532 43.2733 463.532 41.728V34.042C463.532 29.4873 463.003 26.2543 461.946 24.343C460.888 22.391 459.119 21.415 456.639 21.415C454.727 21.415 452.979 21.903 451.393 22.879C449.847 23.855 448.627 25.197 447.733 26.905C447.529 27.3523 447.346 27.7793 447.184 28.186C447.062 28.552 446.96 28.979 446.879 29.467C446.797 29.955 446.736 30.5243 446.696 31.175C446.696 31.785 446.696 32.5577 446.696 33.493V41.301ZM497.294 32.944C494.976 33.8387 493.004 34.713 491.377 35.567C489.791 36.421 488.51 37.275 487.534 38.129C486.558 38.983 485.846 39.837 485.399 40.691C484.992 41.545 484.789 42.4193 484.789 43.314C484.789 44.656 485.236 45.754 486.131 46.608C487.026 47.462 488.205 47.889 489.669 47.889C490.726 47.889 491.702 47.6247 492.597 47.096C493.532 46.5673 494.346 45.8557 495.037 44.961C495.728 44.0257 496.277 42.948 496.684 41.728C497.091 40.4673 497.294 39.1457 497.294 37.763V32.944ZM497.294 30.321V27.82C497.294 22.8587 495.179 20.378 490.95 20.378C490.259 20.378 489.669 20.439 489.181 20.561C488.693 20.683 488.286 20.8863 487.961 21.171C487.636 21.4557 487.331 21.8623 487.046 22.391C486.802 22.9197 486.558 23.5703 486.314 24.343C485.867 25.5223 485.419 26.3153 484.972 26.722C484.565 27.088 483.955 27.271 483.142 27.271C481.109 27.271 480.092 26.2543 480.092 24.221C480.092 22.269 481.129 20.7643 483.203 19.707C485.277 18.609 488.225 18.06 492.048 18.06C496.115 18.06 499.002 18.792 500.71 20.256C502.418 21.6793 503.272 24.1193 503.272 27.576V41.24C503.272 45.876 504.187 48.194 506.017 48.194C506.586 48.194 507.135 48.133 507.664 48.011C508.193 47.8483 508.64 47.462 509.006 46.852L509.86 48.316C509.372 49.2513 508.477 50.0443 507.176 50.695C505.875 51.305 504.512 51.61 503.089 51.61C501.3 51.61 499.958 51.0407 499.063 49.902C498.209 48.7633 497.782 47.157 497.782 45.083H497.477C496.42 47.0757 494.956 48.6617 493.085 49.841C491.214 50.9797 489.14 51.549 486.863 51.549C484.301 51.549 482.288 50.8983 480.824 49.597C479.36 48.2957 478.628 46.547 478.628 44.351C478.628 43.375 478.791 42.4397 479.116 41.545C479.482 40.6503 480.051 39.7963 480.824 38.983C481.597 38.1697 482.613 37.3767 483.874 36.604C485.135 35.7907 486.68 34.9773 488.51 34.164L497.294 30.321Z" fill="black"/>
</svg>
