<svg width="160" height="108" viewBox="0 0 160 108" fill="none" xmlns="http://www.w3.org/2000/svg">
<path d="M110.55 85.7C110.15 85.7 109.75 85.6 109.45 85.3L48.45 24.2C47.85 23.6 47.85 22.7 48.45 22.1C49.05 21.5 49.95 21.5 50.55 22.1L111.65 83.2C112.25 83.8 112.25 84.7 111.65 85.3C111.25 85.5 110.95 85.7 110.55 85.7Z" fill="#00D9B3"/>
<path d="M49.55 85.7C49.15 85.7 48.75 85.6 48.45 85.3C47.85 84.7 47.85 83.8 48.45 83.2L109.55 22.1C110.15 21.5 111.05 21.5 111.65 22.1C112.25 22.7 112.25 23.6 111.65 24.2L50.65 85.2C50.35 85.5 49.95 85.7 49.55 85.7Z" fill="#00D9B3"/>
<path d="M79.5 98.3C78.7 98.3 78 97.6 78 96.8V10.5C78 9.7 78.7 9 79.5 9C80.3 9 81 9.7 81 10.5V96.8C80.9 97.6 80.3 98.3 79.5 98.3Z" fill="#00D9B3"/>
<path d="M122.8 55.1H36.5C35.7 55.1 35 54.4 35 53.6C35 52.8 35.7 52.1 36.5 52.1H122.8C123.6 52.1 124.3 52.8 124.3 53.6C124.3 54.4 123.7 55.1 122.8 55.1Z" fill="#00D9B3"/>
<path d="M119.314 71.7C119.114 71.7 118.914 71.7 118.714 71.6L38.9141 38.6C38.1141 38.3 37.8141 37.4 38.1141 36.7C38.4141 35.9 39.3141 35.6 40.0141 35.9L119.814 68.9C120.614 69.2 120.914 70.1 120.614 70.8C120.514 71.3 119.914 71.7 119.314 71.7Z" fill="#00D9B3"/>
<path d="M63.5141 95C63.3141 95 63.1141 95 62.9141 94.9C62.1141 94.6 61.8141 93.7 62.1141 93L95.1141 13.2C95.4141 12.4 96.3141 12.1 97.0141 12.4C97.8141 12.7 98.1141 13.6 97.8141 14.3L64.8141 94.1C64.7141 94.7 64.1141 95 63.5141 95Z" fill="#00D9B3"/>
<path d="M96.5141 95C95.9141 95 95.4141 94.7 95.1141 94.1L62.1141 14.3C61.8141 13.5 62.1141 12.7 62.9141 12.4C63.7141 12.1 64.5141 12.4 64.8141 13.2L97.8141 93C98.1141 93.8 97.8141 94.6 97.0141 94.9C96.9141 95 96.7141 95 96.5141 95Z" fill="#00D9B3"/>
<path d="M39.5141 71.7C38.9141 71.7 38.4141 71.4 38.1141 70.8C37.8141 70 38.1141 69.2 38.9141 68.9L118.714 35.9C119.514 35.6 120.314 35.9 120.614 36.7C120.914 37.5 120.614 38.3 119.814 38.6L40.0141 71.6C39.9141 71.6 39.7141 71.7 39.5141 71.7Z" fill="#00D9B3"/>
<path d="M113 53.6C113 71.8 98.2 86.6 80 86.6C61.8 86.6 47 71.8 47 53.6C47 35.4 61.8 20.6 80 20.6C98.3 20.7 113 35.4 113 53.6Z" fill="white"/>
<path d="M107.1 53.6C107.1 68.8 94.8 81.1 79.6 81.1C64.4 81.1 52 68.8 52 53.6C52 38.4 64.3 26.1 79.5 26.1C94.7 26.1 107.1 38.4 107.1 53.6Z" fill="white"/>
<path d="M80 82.6C64 82.6 51 69.6 51 53.6C51 37.6 64 24.6 80 24.6C96 24.6 109 37.6 109 53.6C109 69.6 96 82.6 80 82.6ZM80 27.6C65.6 27.6 54 39.3 54 53.6C54 67.9 65.7 79.6 80 79.6C94.3 79.6 106 67.9 106 53.6C106 39.3 94.3 27.6 80 27.6Z" fill="#00D9B3"/>
<path d="M95.4 53.6C95.4 62.3 88.4 69.3 79.7 69.3C71 69.3 64 62.3 64 53.6C64 44.9 71 37.9 79.7 37.9C88.3 37.9 95.4 45 95.4 53.6Z" fill="#00D9B3"/>
<path d="M93.2 40.3C93.2 43.6 90.5 46.3 87.2 46.3C83.9 46.3 81.2 43.6 81.2 40.3C81.2 37 83.9 34.3 87.2 34.3C90.5 34.3 93.2 36.9 93.2 40.3Z" fill="white"/>
<path d="M80 82.6C64 82.6 51 69.6 51 53.6C51 37.6 64 24.6 80 24.6C96 24.6 109 37.6 109 53.6C109 69.6 96 82.6 80 82.6ZM80 27.6C65.6 27.6 54 39.3 54 53.6C54 67.9 65.7 79.6 80 79.6C94.3 79.6 106 67.9 106 53.6C106 39.3 94.3 27.6 80 27.6Z" fill="#00D9B3"/>
</svg>
